<svg id="Layer_1" xmlns="http://www.w3.org/2000/svg" width="460" height="250" viewBox="0 0 460 250"><style>.st0{fill:#f9f9f9}.st1{fill:#e2e2e2}</style><path class="st0" d="M0 0h460v250H0z"/><path class="st1" d="M287.4 72.9h-13.6l-.9-5.5c-.2-1.1-1.2-1.9-2.3-1.9h-.4l-44.7 7.4H188c-1.3 0-2.5 1.1-2.5 2.5v4.1l-13.6 2.2c-1.2.2-2.1 1.4-1.9 2.6l16.2 98.2c.2 1.1 1.2 1.9 2.3 1.9h.4l44.7-7.4h53.7c1.3 0 2.5-1.1 2.5-2.5V75.3c.1-1.3-1.1-2.4-2.4-2.4zm-52.7 30c0 4.7-3.8 8.4-8.4 8.4-4.7 0-8.5-3.7-8.5-8.4 0-4.6 3.8-8.4 8.5-8.4 4.6 0 8.4 3.8 8.4 8.4zm-13.5 13.7l13 14 17.3-24.1 23.1 35.7h-69.9l16.5-25.6zm49.2-48.4l.8 4.7h-29.6l28.8-4.7zm-84.8 13.9v80.6l-13.2-78.4 13.2-2.2zm3.3 100.1l-.9-5.1h31l-30.1 5.1z"/></svg>