<svg id="Layer_1" xmlns="http://www.w3.org/2000/svg" width="187.6" height="186.4" viewBox="0 0 187.6 186.4"><style>.st0{fill:#e8e8e8}.st1{fill:#f7f7f7}</style><path class="st0" d="M-.8-1h188.3v188.3H-.8z"/><path class="st1" d="M152.7 39.8h-13.9l-.9-5.6c-.2-1.2-1.2-2-2.3-2h-.4l-45.9 7.6H50.8c-1.4 0-2.5 1.1-2.5 2.5v4.2l-13.9 2.3c-1.3.2-2.1 1.4-1.9 2.7L49 152.3c.2 1.2 1.2 2 2.3 2h.4l45.8-7.5h55.1c1.4 0 2.5-1.1 2.5-2.5v-102c.1-1.4-1.1-2.5-2.4-2.5zM98.6 70.5c0 4.8-3.9 8.6-8.6 8.6-4.8 0-8.7-3.8-8.7-8.6 0-4.7 3.9-8.6 8.7-8.6 4.7 0 8.6 3.9 8.6 8.6zM84.8 84.6L98.1 99l17.7-24.7 23.7 36.6H67.8l17-26.3zm50.4-49.7l.8 4.9h-30.4l29.6-4.9zM48.3 49.2v82.6L34.8 51.5l13.5-2.3zm3.3 102.6l-.9-5.2h31.7l-30.8 5.2z"/></svg>