<svg id="Layer_1" xmlns="http://www.w3.org/2000/svg" width="54.9" height="77.6" viewBox="0 0 54.9 77.6"><style>.st0{opacity:.19;enable-background:new}.st1{fill:#5c6bc0}.st2{fill:#e2b89c}.st3{fill:#fff}.st4{fill-rule:evenodd;clip-rule:evenodd}.st4,.st5{fill:#c1272d}.st6{fill:red}.st7{fill:#591217}.st8,.st9{fill-rule:evenodd;clip-rule:evenodd;fill:#0060a1}.st9{fill:#fff}.st10{opacity:.34;fill:#705a4f}.st11{opacity:.46}.st12{fill:#997d70}</style><ellipse class="st0" cx="27.5" cy="71.3" rx="16.4" ry="5.2"/><path class="st1" d="M27.5 1C12.7 1 .7 12.8.7 27.5s26.7 44 26.7 44 26.7-29.4 26.7-44S42.3 1 27.5 1z"/><path class="st2" d="M17.8 52.7s2.3 6.5 8.6 6.6c6.3.1 7.5-1.4 8.7-5.5"/><path d="M26.8 59.5h-.4c-6.3-.1-8.7-6.6-8.8-6.7l.3-.1c0 .1 2.3 6.4 8.5 6.5 6.4.1 7.5-1.5 8.5-5.4l.3.1c-1.1 4.1-2.5 5.6-8.4 5.6z"/><path class="st2" d="M12.7 33.2s-2-3.2-2.6.1c0 0 .3 2.3.9 3.4 0 0 1 2.3-.5 4 0 0 .5 2.3 2.1 1.8l1.1-5.5-1-3.8z"/><path d="M12.2 42.9c-1.5 0-1.9-2-1.9-2v-.1l.1-.1c1.4-1.7.5-3.8.5-3.8-.6-1.1-.9-3.4-.9-3.5.2-1.1.6-1.6 1.1-1.6.8 0 1.7 1.3 1.8 1.5l1 3.9-1.1 5.7h-.1c-.2-.1-.3 0-.5 0zm-1.5-2c.1.3.5 1.7 1.6 1.7.1 0 .2-.1.3-.1l1-5.4-1-3.8c-.2-.4-.9-1.3-1.5-1.3-.5 0-.7.7-.8 1.3 0 .3.3 2.4.9 3.4-.1 0 .9 2.4-.5 4.2z"/><path class="st2" d="M18.7 54.5c-4.1-1.8-5.6-6.9-6.2-10.9-.6-4 .2-8.9.2-8.9-.1-2.8-.9-10.9-.9-10.9s14.1-10.1 30.7 1.1l3.2 2.4-.5 3.8-1.6 10.6s.5 2.7-2.8 8c-3.7 6.1-7.5 7.6-7.5 7.6"/><path d="M33.5 57.5v-.3s3.7-1.6 7.4-7.5c3.1-5.1 2.8-7.8 2.7-7.9l1.6-10.6.5-3.7-3.2-2.3C34 19.5 26.1 19.5 21 20.5c-5.1 1-8.4 3.2-9 3.6.1.9.9 8.2.9 10.8 0 .1-.8 4.9-.2 8.8.5 3.4 1.7 8.8 6.1 10.7l-.1.3c-4.6-2-5.8-7.5-6.3-11-.6-3.8.1-8.5.2-9-.1-2.8-.9-10.7-.9-10.8v-.1l.1-.1s3.6-2.5 9.2-3.7c5.1-1 13.1-1 21.7 4.8l3.3 2.4-.5 3.9-1.6 10.5c.2.4.3 3.1-2.8 8.1-3.7 6.2-7.5 7.8-7.6 7.8z"/><path d="M22.9 40.3l-.3-.1c1.2-3.8.7-8.1.7-8.2h.3s.6 4.5-.7 8.3zm.2 4.2c-1.3-.4-2.1-.9-2.3-1.7-.3-1.3 1.2-2.7 1.2-2.8l.2.2s-1.4 1.3-1.1 2.5c.2.7.9 1.2 2 1.5v.3z"/><path d="M26.7 45c-2.3 0-4.1-1.6-4.1-1.6l.2-.3c.2.1 4 3.4 7.4-.1l.2.2c-1.3 1.4-2.6 1.8-3.7 1.8z"/><path d="M30.4 43.8h-.2v-.3s1.7.1 1.9-1c.3-1.2-1.9-2.2-1.9-2.3l.1-.3c.1 0 2.4 1.2 2.1 2.6-.2 1.1-1.3 1.3-2 1.3z"/><path class="st3" d="M20.3 47.8s3 3.1 14.9-.8c0 0-2.2 3.5-2.9 4.1 0 0-6.7.5-7.6.7-.1 0-2 .2-4.4-4z"/><path d="M24.5 51.9c-.3 0-2.2-.2-4.4-4.1l-.7-1.2.9 1s1.1 1.1 4.6 1.1c2.7 0 6.1-.7 10.1-2l.4-.1-.1.4c-.1.1-2.3 3.5-3 4.2h-.1c0 .1-6.7.6-7.7.7.1 0 .1 0 0 0zm-3.7-3.6c2 3.2 3.6 3.3 3.7 3.3.9 0 6.9-.6 7.6-.6.6-.6 2-2.8 2.6-3.7-3.8 1.2-7.1 1.8-9.8 1.8-2.1 0-3.4-.5-4.1-.8z"/><path d="M26.9 50.4c-1.2 0-2.1-.1-2.2-.1v-.2s4.9.8 7.7-1.3l.1.1c-1.5 1.2-3.9 1.5-5.6 1.5zM14.1 31.1s4.6-1.8 6.6-1.9c0 0 2.2.5 3 1 .8.5-.8-2.1-2.4-2.6-1.6-.5-2.9.4-4.3.7-1.3.4-1.2-.7-1.2-.7s-.9-.6-1.7 3.5zm28.7-6.9s-1.1 14.3-2 16.5l1.8.8S45 33.3 47 26.4l-2.2-3.7-2 1.5zM12.1 24s1.1 9.9.4 12c0 0-1-10.4-1.8-12.1l1.3-1.3.1 1.4z"/><path class="st4" d="M29.4 5.5s.3-1.3 1.4-1.2c1.1.1 1 .3 1.1 1.4.1 1.1-2 .5-2 .5l-.5-.7z"/><path d="M31 6.5c-.5 0-1.1-.2-1.1-.2h-.1l-.5-.8v-.1c0-.1.4-1.5 1.6-1.3 1 .1 1.1.4 1.1 1.3v.3c0 .2 0 .4-.2.5-.1.2-.4.3-.8.3zM30 6c.2 0 .6.1 1 .1.3 0 .5-.1.6-.2.1-.1.1-.2.1-.3v-.3c0-.8 0-.9-.9-1-.8-.1-1.1.8-1.2 1l.4.7z"/><path class="st5" d="M43.9 26.3s1.3 1.4 1.8 3c.6 1.6.6 0 .6 0s3.4-10.3-2.1-16.9c0 0-3.7-3.4-4.5-4.3-.7-.9-5.8-4.3-14.7-2.4 0 0-8.1.7-14 6.7 0 0-3.3 5.8.5 13.3l12.2-6.8 8.4 1.5 8.3 2.8 3.5 3.1z"/><path d="M46.2 30.1c-.2 0-.3-.1-.6-.8-.6-1.5-1.8-2.9-1.8-2.9l-3.5-3.1-8.3-2.8-8.3-1.5-12.3 6.9-.1-.2c-3.8-7.4-.6-13.4-.5-13.4 5.9-5.9 14-6.7 14.1-6.7 1.9-.4 3.6-.6 5.3-.6 5.7 0 9 2.2 9.7 3 .8.9 4.4 4.2 4.5 4.3 5.4 6.4 2.3 16.5 2.2 17 0 .2 0 .6-.2.8h-.2zM23.6 18.7l8.5 1.6 8.4 2.8 3.6 3.1c.1.1 1.3 1.5 1.9 3 .1.3.2.4.2.5v-.5c0-.1 3.3-10.3-2.1-16.7-.1-.1-3.7-3.4-4.5-4.3-.6-.6-3.8-2.9-9.4-2.9-1.7 0-3.4.2-5.2.6-.1 0-8.1.8-13.9 6.6-.2.4-3 5.9.5 12.9l12-6.7z"/><path class="st5" d="M43 21.6s1.6 2.4 1.7 4.4c0 0 0 2.2-1.6-.4-1.6-2.5-2.2-4.7-2.2-4.7l2.1.7z"/><path d="M44.3 27.1c-.4 0-.8-.4-1.4-1.3-1.6-2.5-2.2-4.7-2.2-4.7l-.1-.3 2.5.7c.1.1 1.7 2.5 1.7 4.5 0 .1 0 .6-.3.9.1.1-.1.2-.2.2zm-3.2-5.9c.2.7.8 2.4 2.1 4.4.7 1.1 1 1.2 1.1 1.2h.1c.1-.1.2-.5.2-.6 0-1.8-1.4-4-1.6-4.3l-1.9-.7z"/><path class="st5" d="M6.5 28s2.5-1.2 4.5-.6c0 0 14.7-13.8 32.6-.8 0 0 0-2.4-1.5-4.5 0 0-8.5-6.1-18.6-3.6C13.4 21 7.3 26 6.5 28z"/><path d="M6.2 28.4l.2-.4c.8-2.1 7.2-7.2 17.1-9.6 1.6-.4 3.3-.6 5-.6 7.8 0 13.7 4.2 13.8 4.2 1.5 2.1 1.5 4.5 1.5 4.6v.3l-.3-.2c-5.1-3.7-10.4-5.6-15.8-5.6-9.8 0-16.6 6.3-16.7 6.3l-.1.1h-.1c-.4-.1-.7-.2-1.2-.2-1.6 0-3.2.7-3.2.7l-.2.4zm22.3-10.3c-1.7 0-3.3.2-4.9.6-9.3 2.3-15.4 6.8-16.7 9 .6-.2 1.7-.6 2.9-.6.4 0 .8 0 1.2.1.8-.7 7.4-6.3 16.8-6.3 5.4 0 10.6 1.8 15.7 5.4-.1-.7-.3-2.5-1.4-4.1-.4-.2-6.2-4.1-13.6-4.1z"/><path class="st6" d="M5.8 27.5s6.9-9.2 18.8-10.4C36.6 16 43 21.6 43 21.6s.3 1.1-.8.6C41 21.7 34 18 24.7 19.3c-9.4 1.3-15 5.9-18.2 8.7-3.1 2.9-.7-.5-.7-.5z"/><path d="M5 29.4c-.1 0-.2 0-.2-.1s-.2-.3.9-1.8c.1-.1 7.1-9.3 18.9-10.4 1.1-.1 2.2-.2 3.3-.2 9.8 0 15.2 4.6 15.2 4.6s.1.5-.1.7c-.1.1-.2.2-.4.2s-.3 0-.6-.1c-.1 0-.2-.1-.4-.2-1.6-.7-6.4-3-13-3-1.4 0-2.7.1-4.1.3-8.8 1.3-14.3 5.3-18 8.7-1 1.1-1.3 1.3-1.5 1.3zm22.9-12.2c-1.1 0-2.1.1-3.2.2C12.9 18.5 6 27.6 6 27.6c-.3.5-.7 1-.8 1.3.2-.1.5-.4 1.3-1 3.8-3.4 9.3-7.5 18.2-8.8 1.4-.2 2.8-.3 4.1-.3 6.6 0 11.5 2.3 13.1 3 .2.1.3.1.4.2.2.1.3.1.4.1.1 0 .1 0 .2-.1s.1-.3 0-.4c-.5-.3-5.8-4.4-15-4.4z"/><path class="st7" d="M42.8 19.9c-.2-4.9-1.3-8.5-1.3-8.5l.3-.1s1.1 3.7 1.3 8.6h-.3z"/><path class="st8" d="M24.8 13.8s0-.1 0 0c0-.1 0-.1 0 0 0-.1 0-.1 0 0v-.1l-.2-1.2c-.1-.4.5-.7.5-.7s-.2 0-.3-.1l-.2.1s-.5.2-.4.6l.3 2.1c0 .1.1.2.4.2h.1c-.1-.3-.1-.5-.2-.9z"/><path class="st8" d="M25.5 14.6c0-.1 0-.1 0 0 0-.1 0-.1 0 0 0-.1 0-.1 0 0l-.1-.1c.1 0 .1 0 .1.1l-.2-.2.2 1.3-3.4.5.6.4h.2l2.8-.4-.2-1.4v-.2zm0-4.1l.6.4.8-.1-.4-2.8-.6-.4.5 2.8-.9.1zm-1.6.5c.1.3.6.5.6.5l.2.1c-.2-.1-.3-.2-.3-.4-.1-.4-.3-1.8-.3-1.8h.1c.3 0 .6 0 .8.1-.3-.2-.8-.3-1.4-.2 0 .1.3 1.7.3 1.7zm-2-1.5c-1.1.2-1.5.6-1.3 1.6v.2l-1.1.2.6.4 1-.2v-.2c-.2-1-.2-1.6.8-1.8v-.2z"/><path class="st9" d="M24.2 14.3l-.3-2.1c-.1-.3.2-.6.4-.7-.2-.1-.5-.2-.6-.5l-.3-1.9h.2c1.1-.2 1.9.2 2 1.1v.1c.1 0 .4-.1.6-.1 0-.2-.4-2.2-.4-2.4-.2 0-6.3 1-6.5 1 0 .2.4 2.2.4 2.4.1 0 .6-.1.7-.1V11v.1c-.2-1 .3-1.6 1.5-1.7h.2l.3 1.9c.1.3-.2.6-.3.7.2.1.5.2.5.5l.3 2.1c0 .3-.1.5-.4.5 0 0-.3 0-.4.1 0 .1.1.8.1.9.2 0 2.9-.5 3.1-.5 0-.1-.1-.8-.1-.9-.1 0-.4.1-.4.1-.3-.1-.5-.2-.6-.5z"/><path class="st2" d="M44 40.3s-1.4.4-.7 1.9c0 0 2.8 2.6 3.1-1.1 0 0 .2-1.5-.3-3.7-.5-2.1.8-4.4.8-4.4s.3-3.5-2-1.9"/><path d="M45.1 43.3c-.9 0-1.9-.9-1.9-.9-.3-.5-.3-1-.1-1.4.3-.6.9-.7.9-.8l.1.3s-.5.1-.7.6c-.1.3-.1.7.1 1.1.2.2 1.2 1.1 2 .8.4-.2.7-.8.8-1.8 0 0 .2-1.6-.3-3.6-.4-2 .6-4.1.8-4.4 0-.5 0-1.7-.5-2-.3-.2-.7-.1-1.3.3l-.3-.5c.7-.5 1.2-.6 1.6-.3.8.5.7 2.3.7 2.4v.1s-1.2 2.2-.8 4.2c.5 2.1.3 3.7.3 3.7-.1 1.1-.4 1.8-1 2.1-.1 0-.3.1-.4.1z"/><path class="st10" d="M42.6 41.6s-.6 10.3-8.7 15.5c-3 3.5-9.6 2.2-11.3 1.3-.6-.3-1.1-.7-1.5-1l-.2-.2-2.8-3.2c-3.5-1.5-4.5-6.2-5.3-8.7-.8-2.6-.3-9.3-.3-9.3C13 50.1 20 53.6 20 53.6c0-1 .1-2.3 0-3.7 0 0 1 4.9 2.9 5.4s3.8-.9 3.8-1.7c0 0 1.5.3 2.2 0 0 0-.6 3.2 1.7 2.1 0 0 3.1.8 4.6-6.2 0 0 .4 1.1 0 3.1.7-.7 4.9-5.4 5.6-11.9l1.8.9z"/><g class="st11"><path class="st12" d="M23.1 32.5s0-.1 0 0c-.1-.1-.2-.2-.2-.3l-.3-.3c-.1 0-.1-.1-.2-.1s-.2-.1-.2-.1c-.1 0-.2-.1-.3-.1-.1 0-.2-.1-.3-.1-.1 0-.2 0-.3-.1h-.7c-.1 0-.2 0-.4.1-.1 0-.2.1-.4.1-.1 0-.1 0-.2.1l-.2.1-.2.1H19c-.1.1-.2.1-.4.2s-.5.2-.7.3c-.2.1-.5.2-.7.2-.1 0-.2.1-.3.1-.1 0-.2.1-.3.1-.2 0-.4.1-.5.1h-.8.4c.1 0 .2 0 .4-.1.1 0 .2 0 .2-.1.1 0 .2 0 .3-.1.1 0 .2-.1.3-.1.1 0 .2-.1.3-.1.1 0 .2-.1.3-.1.1 0 .2-.1.3-.1.1 0 .2-.1.3-.1.1-.1.2-.1.3-.2.1-.1.2-.1.4-.2l.2-.1.2-.1.2-.1c.1 0 .1-.1.2-.1s.3-.1.4-.1c.1 0 .3 0 .4-.1h.8c.1 0 .2.1.3.1.1 0 .2.1.3.1.1 0 .2.1.3.1.1.1.2.1.2.2l.2.2.3.3c.1.1.2.2.3.4 0-.1 0 0 0 0z"/></g><path d="M29 28.9s4.2-.3 6.8.3c2.5.6 4.1 2.3 4.8 2.4.6.1-1-2.8-1.7-3.1-.7-.3-2-1.7-3.5-2 0 0-.7.9-2 1.1-1.5.2-5.3.1-4.4 1.3z"/><g class="st11"><path class="st12" d="M28.8 33.1s.1-.1.3-.4c.2-.2.4-.5.7-.9.2-.2.4-.4.6-.5.2-.2.5-.3.7-.5.1-.1.3-.1.5-.2h.4c.3 0 .6 0 1 .1.3 0 .6.1.9.2l.9.3c.3.1.6.2.8.3.1.1.2.1.4.2.1.1.2.1.3.2l.6.3c.2.1.3.2.5.2l.4.2s-.6-.2-1.5-.6c-.2-.1-.5-.2-.7-.3-.3-.1-.5-.2-.8-.3l-.9-.3c-.3-.1-.6-.1-.9-.2-.3 0-.6-.1-.9-.1h-.4c-.1 0-.3.1-.4.1-.3.1-.5.3-.7.4-.2.2-.4.3-.6.5l-.8.8c-.3.4-.4.5-.4.5z"/></g><g id="XMLID_1_"><path class="st3" d="M29.2 33.4s.9-.7 1.8-1.6c.8-.9 2.7-.5 5 .6 0 0 1.6.6 2.2.6.1.1-5.6 2-9 .4z"/><path d="M38.3 33c-.4 0-1.4-.3-1.9-.5-.2-.1-.3-.1-.4-.1-2.6-1.2-4.3-1.5-5.1-.7-.8.9-1.7 1.6-1.8 1.6l-.1.1h.1c.5.2 1.1.4 1.7.5.6.1 1.1.1 1.7.1 1.4 0 2.8-.2 3.8-.5 1.1-.2 1.9-.5 1.9-.5l.3-.1-.2.1zm-1.9.5c-1.5.3-3.7.7-5.6.3-.5-.1-1-.2-1.5-.4.2-.2.9-.7 1.5-1.3l.2-.2c.7-.8 2.4-.6 5 .6l.4.2c.4.2 1.1.4 1.6.5-.3 0-.9.2-1.6.3z"/></g><g class="st11"><path class="st12" d="M32.2 40.5s.1 0 .1.1c0 0 .1.1.2.1s.1.1.2.1.1.1.2.2.2.1.2.2l.2.2c.1.1.1.2.2.3.1.1.1.2.2.3.1.1.1.2.2.3.1.1.1.2.1.3 0 .1.1.2.1.3 0 .1.1.2.1.2v.4l-.1-.1-.1-.1c0-.1-.1-.1-.1-.2s-.1-.1-.2-.2-.1-.2-.2-.2c-.1-.1-.1-.2-.2-.3-.1-.1-.1-.2-.2-.3-.1-.1-.1-.2-.2-.3l-.1-.1-.1-.1c-.1-.1-.1-.2-.2-.2l-.2-.2c.1-.5-.1-.7-.1-.7z"/></g><g class="st11"><path class="st12" d="M19.5 44.6V44c0-.2 0-.4.1-.6 0-.1.1-.2.1-.3 0-.1.1-.2.1-.3 0-.1.1-.2.1-.3.1-.1.1-.2.2-.3.1-.1.1-.2.2-.3.1-.1.1-.2.2-.2l.2-.2c.1 0 .1-.1.1-.1l.1-.1s0 .1-.1.1c0 0-.1.1-.1.2s-.1.1-.1.2-.1.2-.1.2c0 .1-.1.2-.1.3 0 .1-.1.2-.1.3 0 .1-.1.2-.1.3 0 .1-.1.2-.1.3 0 .1-.1.2-.1.3-.1.2-.1.4-.2.6-.1.2-.1.3-.1.4-.1 0-.2.1-.2.1z"/></g><g class="st11"><path class="st12" d="M24.2 39.3s.1-.1.2-.1.1-.1.2-.1.2-.1.3-.1c.1 0 .2-.1.3-.1.1 0 .2-.1.4-.1h1.6c.1 0 .1 0 .2.1.1 0 .1 0 .2.1.1 0 .1 0 .2.1.1 0 .1.1.2.1.1.1.2.1.3.2.1.1.1.1.2.1.1.1.2.1.2.1s-.1 0-.2-.1c-.1 0-.1-.1-.2-.1s-.2-.1-.3-.1h-1.2c-.1 0-.1-.2-.2-.2l-.2-.2h-.1l-.1.2c-.1 0-.1.1-.2.1s-.3.1-.4.1c-.1 0-.3.1-.4.1-.1 0-.2.1-.3.1-.1 0-.2.1-.3.1-.1 0-.2 0-.2.1-.1-.4-.2-.4-.2-.4z"/></g><g class="st11"><path class="st12" d="M29.1 33.7s.1.1.4.2c.2.1.6.3 1 .4.2.1.5.2.7.2.3.1.5.1.8.2.3.1.6.1.9.1.3 0 .6.1.9.1h2.1c.1 0 .3-.1.4-.1.3-.1.5-.1.7-.2.1 0 .2-.1.3-.1.1 0 .2-.1.3-.1.2-.1.3-.1.4-.2l.4-.2s-.1.1-.4.2c-.1.1-.3.2-.4.3l-.6.3c-.1 0-.2.1-.3.1-.1.1-.2.1-.4.1-.1 0-.3.1-.4.1-.1 0-.1 0-.2.1h-1.9c-.3 0-.6 0-.9-.1h-.4c-.2 0-.3-.1-.4-.1-.3-.1-.6-.2-.8-.3-.3-.1-.5-.2-.7-.3-.4-.2-.8-.4-1-.6-.3.1-.4 0-.5-.1z"/></g><g class="st11"><path class="st12" d="M23 34.8s-.1.1-.3.2c-.1.1-.2.1-.3.2-.1.1-.3.2-.5.2-.2.1-.4.2-.6.2-.2.1-.4.1-.7.2-.2.1-.5.1-.7.1-.2 0-.5 0-.8.1h-.8c-.2 0-.5-.1-.7-.1-.2-.1-.4-.1-.6-.2-.1 0-.2-.1-.3-.1-.1 0-.2-.1-.3-.1-.2-.1-.3-.2-.4-.3-.1-.1-.2-.2-.3-.2-.2-.1-.3-.2-.3-.2s.1.1.3.2c.1.1.2.1.3.2.1 0 .1.1.2.1s.2.1.2.1c.1 0 .2.1.3.1.1 0 .2.1.3.1.2.1.4.1.6.2.2.1.5.1.7.1h1.9c.1 0 .2 0 .3-.1.2 0 .4-.1.6-.1.2-.1.4-.1.6-.2.4-.1.6-.2.8-.3.3-.3.3-.3.5-.4-.1 0 0 0 0 0z"/></g><g id="XMLID_3_"><path class="st3" d="M23.2 34s-.9-2.5-2.9-2c-2.4.6-4 1.9-5.3 1.9 0-.1 5.4 1.8 8.2.1z"/><path d="M23.3 33.9s-.5-1.3-1.5-1.9c-.4-.2-.9-.3-1.5-.2-1.2.3-2.1.7-2.9 1.1-.3.2-.6.3-.9.4-.5.2-1 .3-1.4.3h-.4l.4.1s.6.2 1.5.4 2.2.4 3.5.4c.7 0 1.4-.1 2-.2.4.1.8-.1 1.2-.4zm-1.2.5c-1.8.5-4.1.1-5.6-.2-.5-.1-.9-.2-1.1-.3.3 0 .7-.2 1.1-.3.3-.1.6-.3 1-.4.8-.4 1.8-.8 2.9-1.1.6-.2 1.1 0 1.5.3.8.5 1.2 1.4 1.3 1.7-.4 0-.7.2-1.1.3z"/></g><path d="M22.2 33.9c0 .2-.1.3-.1.5v.2c-.6.2-1.3.2-2 .2-1.3 0-2.6-.2-3.5-.4v-.2c0-.2-.1-.4-.1-.6v-.2c.3-.1.6-.3.9-.4.8-.4 1.8-.8 2.9-1.1.6-.1 1.1 0 1.5.2 0 0 0 .1.1.1 0 0 0 .1.1.1.1.5.2 1 .2 1.6z"/><ellipse transform="rotate(-82.975 20.069 32.887)" class="st3" cx="20.1" cy="32.9" rx=".7" ry=".7"/><ellipse transform="rotate(-82.975 19.503 33.328)" class="st3" cx="19.5" cy="33.3" rx=".5" ry=".5"/><path d="M36.4 33.4v.3c-1.1.2-2.4.5-3.8.5-.6 0-1.2 0-1.7-.1v-.2c-.1-.4-.1-.8-.1-1.2 0-.2.1-.4.1-.6 0 0 0-.1.1-.1 0-.1.1-.1.1-.2.8-.8 2.5-.6 5.1.7 0 0 .1.1.4.1v.2c-.1.1-.1.3-.2.6z"/><ellipse transform="rotate(-82.987 34.352 32.551)" class="st3" cx="34.4" cy="32.6" rx=".7" ry=".7"/><ellipse transform="rotate(-82.992 33.745 33.026)" class="st3" cx="33.7" cy="33" rx=".5" ry=".5"/></svg>