<?xml version="1.0" encoding="utf-8"?>
<!-- Generator: Adobe Illustrator 19.2.1, SVG Export Plug-In . SVG Version: 6.00 Build 0)  -->
<!DOCTYPE svg PUBLIC "-//W3C//DTD SVG 1.1//EN" "http://www.w3.org/Graphics/SVG/1.1/DTD/svg11.dtd">
<svg version="1.1" id="Layer_1" xmlns="http://www.w3.org/2000/svg" xmlns:xlink="http://www.w3.org/1999/xlink" x="0px" y="0px"
	 width="54.9px" height="77.6px" viewBox="0 0 54.9 77.6" style="enable-background:new 0 0 54.9 77.6;" xml:space="preserve">
<style type="text/css">
	.st0{opacity:0.19;enable-background:new    ;}
	.st1{fill:#5C6BC0;}
	.st2{fill:#E2B89C;}
	.st3{fill:#FFFFFF;}
	.st4{fill-rule:evenodd;clip-rule:evenodd;fill:#C1272D;}
	.st5{fill:#C1272D;}
	.st6{fill:#FF0000;}
	.st7{fill:#591217;}
	.st8{fill-rule:evenodd;clip-rule:evenodd;fill:#0060A1;}
	.st9{fill-rule:evenodd;clip-rule:evenodd;fill:#FFFFFF;}
	.st10{opacity:0.34;fill:#705A4F;}
	.st11{opacity:0.46;}
	.st12{fill:#997D70;}
</style>
<g>
	<ellipse class="st0" cx="27.5" cy="71.3" rx="16.4" ry="5.2"/>
	<path class="st1" d="M27.5,1C12.7,1,0.7,12.8,0.7,27.5s26.7,44,26.7,44s26.7-29.4,26.7-44S42.3,1,27.5,1z"/>
</g>
<g>
	<g>
		<path class="st2" d="M17.8,52.7c0,0,2.3,6.5,8.6,6.6c6.3,0.1,7.5-1.4,8.7-5.5"/>
		<path d="M26.8,59.5c-0.1,0-0.3,0-0.4,0c-6.3-0.1-8.7-6.6-8.8-6.7l0.3-0.1c0,0.1,2.3,6.4,8.5,6.5c6.4,0.1,7.5-1.5,8.5-5.4l0.3,0.1
			C34.1,58,32.7,59.5,26.8,59.5z"/>
	</g>
	<g>
		<g>
			<path class="st2" d="M12.7,33.2c0,0-2-3.2-2.6,0.1c0,0,0.3,2.3,0.9,3.4c0,0,1,2.3-0.5,4c0,0,0.5,2.3,2.1,1.8l1.1-5.5L12.7,33.2z"
				/>
			<path d="M12.2,42.9L12.2,42.9c-1.5,0-1.9-2-1.9-2l0-0.1l0.1-0.1c1.4-1.7,0.5-3.8,0.5-3.8c-0.6-1.1-0.9-3.4-0.9-3.5l0,0l0,0
				c0.2-1.1,0.6-1.6,1.1-1.6c0.8,0,1.7,1.3,1.8,1.5l0,0l1,3.9l-1.1,5.7l-0.1,0C12.5,42.8,12.4,42.9,12.2,42.9z M10.7,40.9
				c0.1,0.3,0.5,1.7,1.6,1.7c0,0,0,0,0,0c0.1,0,0.2-0.1,0.3-0.1l1-5.4l-1-3.8c-0.2-0.4-0.9-1.3-1.5-1.3c-0.5,0-0.7,0.7-0.8,1.3
				c0,0.3,0.3,2.4,0.9,3.4C11.1,36.7,12.1,39.1,10.7,40.9z"/>
		</g>
		<path class="st2" d="M18.7,54.5c-4.1-1.8-5.6-6.9-6.2-10.9c-0.6-4,0.2-8.9,0.2-8.9c-0.1-2.8-0.9-10.9-0.9-10.9s14.1-10.1,30.7,1.1
			l3.2,2.4l-0.5,3.8l-1.6,10.6c0,0,0.5,2.7-2.8,8c-3.7,6.1-7.5,7.6-7.5,7.6"/>
		<path d="M33.5,57.5l0-0.3c0,0,3.7-1.6,7.4-7.5c3.1-5.1,2.8-7.8,2.7-7.9l0,0l0,0l1.6-10.6l0.5-3.7l-3.2-2.3
			c-8.5-5.7-16.4-5.7-21.5-4.7c-5.1,1-8.4,3.2-9,3.6c0.1,0.9,0.9,8.2,0.9,10.8v0l0,0c0,0.1-0.8,4.9-0.2,8.8
			c0.5,3.4,1.7,8.8,6.1,10.7l-0.1,0.3c-4.6-2-5.8-7.5-6.3-11c-0.6-3.8,0.1-8.5,0.2-9c-0.1-2.8-0.9-10.7-0.9-10.8l0-0.1l0.1-0.1
			c0,0,3.6-2.5,9.2-3.7c5.1-1,13.1-1,21.7,4.8l3.3,2.4l-0.5,3.9l-1.6,10.5c0.2,0.4,0.3,3.1-2.8,8.1C37.4,55.9,33.6,57.5,33.5,57.5z"
			/>
		<g>
			<path d="M22.9,40.3l-0.3-0.1c1.2-3.8,0.7-8.1,0.7-8.2l0.3,0C23.6,32,24.2,36.5,22.9,40.3z"/>
		</g>
		<g>
			<path d="M23.1,44.5c-1.3-0.4-2.1-0.9-2.3-1.7C20.5,41.5,22,40.1,22,40l0.2,0.2c0,0-1.4,1.3-1.1,2.5c0.2,0.7,0.9,1.2,2,1.5
				L23.1,44.5z"/>
		</g>
		<g>
			<path d="M26.7,45c-2.3,0-4.1-1.6-4.1-1.6l0.2-0.3c0.2,0.1,4,3.4,7.4-0.1l0.2,0.2C29.1,44.6,27.8,45,26.7,45z"/>
		</g>
		<g>
			<path d="M30.4,43.8c-0.1,0-0.1,0-0.2,0l0-0.3c0,0,1.7,0.1,1.9-1c0.3-1.2-1.9-2.2-1.9-2.3l0.1-0.3c0.1,0,2.4,1.2,2.1,2.6
				C32.2,43.6,31.1,43.8,30.4,43.8z"/>
		</g>
		<g>
			<path class="st3" d="M20.3,47.8c0,0,3,3.1,14.9-0.8c0,0-2.2,3.5-2.9,4.1c0,0-6.7,0.5-7.6,0.7C24.6,51.8,22.7,52,20.3,47.8z"/>
			<path d="M24.5,51.9c-0.3,0-2.2-0.2-4.4-4.1l-0.7-1.2l0.9,1c0,0,1.1,1.1,4.6,1.1c2.7,0,6.1-0.7,10.1-2l0.4-0.1L35.3,47
				c-0.1,0.1-2.3,3.5-3,4.2l0,0l-0.1,0C32.2,51.3,25.5,51.8,24.5,51.9C24.6,51.9,24.6,51.9,24.5,51.9z M20.8,48.3
				c2,3.2,3.6,3.3,3.7,3.3h0c0.9,0,6.9-0.6,7.6-0.6c0.6-0.6,2-2.8,2.6-3.7c-3.8,1.2-7.1,1.8-9.8,1.8C22.8,49.1,21.5,48.6,20.8,48.3z
				"/>
		</g>
		<g>
			<path d="M26.9,50.4c-1.2,0-2.1-0.1-2.2-0.1l0-0.2c0,0,4.9,0.8,7.7-1.3l0.1,0.1C31,50.1,28.6,50.4,26.9,50.4z"/>
		</g>
		<g>
			<path d="M14.1,31.1c0,0,4.6-1.8,6.6-1.9c0,0,2.2,0.5,3,1c0.8,0.5-0.8-2.1-2.4-2.6c-1.6-0.5-2.9,0.4-4.3,0.7
				c-1.3,0.4-1.2-0.7-1.2-0.7S14.9,27,14.1,31.1z"/>
		</g>
		<g>
			<path d="M42.8,24.2c0,0-1.1,14.3-2,16.5l1.8,0.8c0,0,2.4-8.2,4.4-15.1l-2.2-3.7L42.8,24.2z"/>
		</g>
		<g>
			<path d="M12.1,24c0,0,1.1,9.9,0.4,12c0,0-1-10.4-1.8-12.1l1.3-1.3L12.1,24z"/>
		</g>
		<g>
			<path class="st4" d="M29.4,5.5c0,0,0.3-1.3,1.4-1.2c1.1,0.1,1,0.3,1.1,1.4c0.1,1.1-2,0.5-2,0.5L29.4,5.5z"/>
			<path d="M31,6.5c-0.5,0-1.1-0.2-1.1-0.2l-0.1,0l-0.5-0.8l0-0.1c0-0.1,0.4-1.5,1.6-1.3C31.9,4.2,32,4.5,32,5.4l0,0.3
				c0,0.2,0,0.4-0.2,0.5C31.7,6.4,31.4,6.5,31,6.5z M30,6c0.2,0,0.6,0.1,1,0.1c0.3,0,0.5-0.1,0.6-0.2c0.1-0.1,0.1-0.2,0.1-0.3l0-0.3
				c0-0.8,0-0.9-0.9-1c-0.8-0.1-1.1,0.8-1.2,1L30,6z"/>
		</g>
		<g>
			<path class="st5" d="M43.9,26.3c0,0,1.3,1.4,1.8,3c0.6,1.6,0.6,0,0.6,0s3.4-10.3-2.1-16.9c0,0-3.7-3.4-4.5-4.3
				C39,7.2,33.9,3.8,25,5.7c0,0-8.1,0.7-14,6.7c0,0-3.3,5.8,0.5,13.3l12.2-6.8l8.4,1.5l8.3,2.8L43.9,26.3z"/>
			<path d="M46.2,30.1L46.2,30.1c-0.2,0-0.3-0.1-0.6-0.8c-0.6-1.5-1.8-2.9-1.8-2.9l-3.5-3.1L32,20.5L23.7,19l-12.3,6.9l-0.1-0.2
				c-3.8-7.4-0.6-13.4-0.5-13.4l0,0c5.9-5.9,14-6.7,14.1-6.7C26.8,5.2,28.5,5,30.2,5c5.7,0,9,2.2,9.7,3c0.8,0.9,4.4,4.2,4.5,4.3
				c5.4,6.4,2.3,16.5,2.2,17c0,0.2,0,0.6-0.2,0.8C46.3,30.1,46.2,30.1,46.2,30.1z M23.6,18.7l8.5,1.6l8.4,2.8l0,0l3.6,3.1
				c0.1,0.1,1.3,1.5,1.9,3c0.1,0.3,0.2,0.4,0.2,0.5c0-0.1,0-0.3,0-0.4l0-0.1c0-0.1,3.3-10.3-2.1-16.7c-0.1-0.1-3.7-3.4-4.5-4.3
				c-0.6-0.6-3.8-2.9-9.4-2.9c-1.7,0-3.4,0.2-5.2,0.6c-0.1,0-8.1,0.8-13.9,6.6c-0.2,0.4-3,5.9,0.5,12.9L23.6,18.7z"/>
		</g>
		<g>
			<path class="st5" d="M43,21.6c0,0,1.6,2.4,1.7,4.4c0,0,0,2.2-1.6-0.4c-1.6-2.5-2.2-4.7-2.2-4.7L43,21.6z"/>
			<path d="M44.3,27.1c-0.4,0-0.8-0.4-1.4-1.3c-1.6-2.5-2.2-4.7-2.2-4.7l-0.1-0.3l2.5,0.7l0,0c0.1,0.1,1.7,2.5,1.7,4.5
				c0,0.1,0,0.6-0.3,0.9C44.6,27,44.4,27.1,44.3,27.1z M41.1,21.2c0.2,0.7,0.8,2.4,2.1,4.4c0.7,1.1,1,1.2,1.1,1.2c0,0,0,0,0.1,0
				c0.1-0.1,0.2-0.5,0.2-0.6c0-1.8-1.4-4-1.6-4.3L41.1,21.2z"/>
		</g>
		<g>
			<path class="st5" d="M6.5,28c0,0,2.5-1.2,4.5-0.6c0,0,14.7-13.8,32.6-0.8c0,0,0-2.4-1.5-4.5c0,0-8.5-6.1-18.6-3.6
				C13.4,21,7.3,26,6.5,28z"/>
			<path d="M6.2,28.4L6.4,28c0.8-2.1,7.2-7.2,17.1-9.6c1.6-0.4,3.3-0.6,5-0.6c7.8,0,13.7,4.2,13.8,4.2l0,0c1.5,2.1,1.5,4.5,1.5,4.6
				l0,0.3l-0.3-0.2c-5.1-3.7-10.4-5.6-15.8-5.6c-9.8,0-16.6,6.3-16.7,6.3l-0.1,0.1l-0.1,0c-0.4-0.1-0.7-0.2-1.2-0.2
				c-1.6,0-3.2,0.7-3.2,0.7L6.2,28.4z M28.5,18.1c-1.7,0-3.3,0.2-4.9,0.6c-9.3,2.3-15.4,6.8-16.7,9c0.6-0.2,1.7-0.6,2.9-0.6
				c0.4,0,0.8,0,1.2,0.1c0.8-0.7,7.4-6.3,16.8-6.3c5.4,0,10.6,1.8,15.7,5.4c-0.1-0.7-0.3-2.5-1.4-4.1C41.7,22,35.9,18.1,28.5,18.1z"
				/>
		</g>
		<g>
			<path class="st6" d="M5.8,27.5c0,0,6.9-9.2,18.8-10.4C36.6,16,43,21.6,43,21.6s0.3,1.1-0.8,0.6c-1.2-0.5-8.2-4.2-17.5-2.9
				C15.3,20.6,9.7,25.2,6.5,28C3.4,30.9,5.8,27.5,5.8,27.5z"/>
			<path d="M5,29.4c-0.1,0-0.2,0-0.2-0.1c0-0.1-0.2-0.3,0.9-1.8c0.1-0.1,7.1-9.3,18.9-10.4c1.1-0.1,2.2-0.2,3.3-0.2
				c9.8,0,15.2,4.6,15.2,4.6l0,0l0,0c0,0,0.1,0.5-0.1,0.7c-0.1,0.1-0.2,0.2-0.4,0.2c-0.2,0-0.3,0-0.6-0.1c-0.1,0-0.2-0.1-0.4-0.2
				c-1.6-0.7-6.4-3-13-3c-1.4,0-2.7,0.1-4.1,0.3c-8.8,1.3-14.3,5.3-18,8.7C5.5,29.2,5.2,29.4,5,29.4z M27.9,17.2
				c-1.1,0-2.1,0.1-3.2,0.2C12.9,18.5,6,27.6,6,27.6c-0.3,0.5-0.7,1-0.8,1.3c0.2-0.1,0.5-0.4,1.3-1c3.8-3.4,9.3-7.5,18.2-8.8
				c1.4-0.2,2.8-0.3,4.1-0.3c6.6,0,11.5,2.3,13.1,3c0.2,0.1,0.3,0.1,0.4,0.2c0.2,0.1,0.3,0.1,0.4,0.1c0.1,0,0.1,0,0.2-0.1
				c0.1-0.1,0.1-0.3,0-0.4C42.4,21.3,37.1,17.2,27.9,17.2z"/>
		</g>
		<g>
			<path class="st7" d="M42.8,19.9c-0.2-4.9-1.3-8.5-1.3-8.5l0.3-0.1c0,0,1.1,3.7,1.3,8.6L42.8,19.9z"/>
		</g>
		<g>
			<g>
				<path class="st8" d="M24.8,13.8C24.8,13.8,24.8,13.8,24.8,13.8C24.8,13.8,24.8,13.8,24.8,13.8C24.8,13.8,24.8,13.7,24.8,13.8
					C24.8,13.7,24.8,13.7,24.8,13.8C24.8,13.7,24.8,13.7,24.8,13.8l0-0.1c0,0,0,0,0,0c0,0,0,0,0,0c0,0,0,0,0,0c0,0,0,0,0,0
					c0,0,0,0,0,0c0,0,0,0,0,0l0,0c0,0,0,0,0,0c0,0,0,0,0,0l0,0c0,0,0,0,0,0c0,0,0,0,0,0l0,0c0,0,0,0,0,0c0,0,0,0,0,0l0,0
					c0,0,0,0,0,0l0,0l-0.2-1.2c-0.1-0.4,0.5-0.7,0.5-0.7s-0.2,0-0.3-0.1l-0.2,0.1c0,0-0.5,0.2-0.4,0.6l0.3,2.1
					c0,0.1,0.1,0.2,0.4,0.2l0.1,0c0,0,0,0,0,0C24.9,14.4,24.9,14.2,24.8,13.8C24.8,13.8,24.8,13.8,24.8,13.8L24.8,13.8z"/>
			</g>
			<g>
				<path class="st8" d="M25.5,14.6L25.5,14.6C25.5,14.6,25.5,14.6,25.5,14.6C25.5,14.5,25.5,14.5,25.5,14.6
					C25.5,14.5,25.5,14.5,25.5,14.6C25.5,14.5,25.5,14.5,25.5,14.6c-0.1-0.1-0.1-0.1-0.1-0.1C25.5,14.5,25.5,14.5,25.5,14.6
					l-0.2-0.2l0.2,1.3l-3.4,0.5l0.6,0.4l0.2,0c0,0,0,0,0,0c0,0,0,0,0,0c0,0,0,0,0,0c0,0,0,0,0,0c0,0,0,0,0,0c0,0,0,0,0,0
					c0,0,0,0,0,0c0,0,0,0,0,0c0,0,0,0,0,0l0,0c0,0,0,0,0,0c0,0,0,0,0,0l0,0c0,0,0,0,0,0c0,0,0,0,0,0l0,0c0,0,0,0,0,0c0,0,0,0,0,0
					l0,0c0,0,0,0,0,0c0,0,0,0,0,0l0,0c0,0,0,0,0,0c0,0,0,0,0,0l0,0c0,0,0,0,0,0c0,0,0,0,0,0h0c0,0,0,0,0,0c0,0,0,0,0,0c0,0,0,0,0,0
					l0,0l2.8-0.4l-0.2-1.4L25.5,14.6z"/>
			</g>
			<g>
				<polygon class="st8" points="25.5,10.5 26.1,10.9 26.9,10.8 26.5,8 25.9,7.6 26.4,10.4 25.5,10.5 				"/>
			</g>
			<g>
				<path class="st8" d="M23.9,11c0.1,0.3,0.6,0.5,0.6,0.5l0.2,0.1c-0.2-0.1-0.3-0.2-0.3-0.4c-0.1-0.4-0.3-1.8-0.3-1.8l0.1,0
					c0.3,0,0.6,0,0.8,0.1c-0.3-0.2-0.8-0.3-1.4-0.2C23.6,9.4,23.9,11,23.9,11L23.9,11z"/>
			</g>
			<g>
				<path class="st8" d="M21.9,9.5c-1.1,0.2-1.5,0.6-1.3,1.6l0,0.2l-1.1,0.2l0.6,0.4l1-0.2l0-0.2c-0.2-1-0.2-1.6,0.8-1.8
					C21.9,9.6,21.9,9.5,21.9,9.5C21.9,9.5,21.9,9.5,21.9,9.5L21.9,9.5z"/>
			</g>
			<g>
				<path class="st9" d="M24.2,14.3l-0.3-2.1c-0.1-0.3,0.2-0.6,0.4-0.7c-0.2-0.1-0.5-0.2-0.6-0.5l-0.3-1.9l0.1,0c0,0,0.1,0,0.1,0
					c1.1-0.2,1.9,0.2,2,1.1c0,0,0,0.1,0,0.1c0.1,0,0.4-0.1,0.6-0.1c0-0.2-0.4-2.2-0.4-2.4c-0.2,0-6.3,1-6.5,1c0,0.2,0.4,2.2,0.4,2.4
					c0.1,0,0.6-0.1,0.7-0.1c0,0,0-0.1,0-0.1l0,0.1c-0.2-1,0.3-1.6,1.5-1.7l0.2,0l0.3,1.9c0.1,0.3-0.2,0.6-0.3,0.7
					c0.2,0.1,0.5,0.2,0.5,0.5l0.3,2.1c0,0.3-0.1,0.5-0.4,0.5c0,0-0.3,0-0.4,0.1c0,0.1,0.1,0.8,0.1,0.9c0.2,0,2.9-0.5,3.1-0.5
					c0-0.1-0.1-0.8-0.1-0.9c-0.1,0-0.4,0.1-0.4,0.1C24.5,14.7,24.3,14.6,24.2,14.3L24.2,14.3z"/>
			</g>
		</g>
		<g>
			<path class="st2" d="M44,40.3c0,0-1.4,0.4-0.7,1.9c0,0,2.8,2.6,3.1-1.1c0,0,0.2-1.5-0.3-3.7c-0.5-2.1,0.8-4.4,0.8-4.4
				s0.3-3.5-2-1.9"/>
			<path d="M45.1,43.3c-0.9,0-1.9-0.9-1.9-0.9l0,0c-0.3-0.5-0.3-1-0.1-1.4c0.3-0.6,0.9-0.7,0.9-0.8l0.1,0.3c0,0-0.5,0.1-0.7,0.6
				c-0.1,0.3-0.1,0.7,0.1,1.1c0.2,0.2,1.2,1.1,2,0.8c0.4-0.2,0.7-0.8,0.8-1.8c0,0,0.2-1.6-0.3-3.6c-0.4-2,0.6-4.1,0.8-4.4
				c0-0.5,0-1.7-0.5-2c-0.3-0.2-0.7-0.1-1.3,0.3L44.7,31c0.7-0.5,1.2-0.6,1.6-0.3c0.8,0.5,0.7,2.3,0.7,2.4l0,0.1
				c0,0-1.2,2.2-0.8,4.2c0.5,2.1,0.3,3.7,0.3,3.7c-0.1,1.1-0.4,1.8-1,2.1C45.4,43.2,45.2,43.3,45.1,43.3z"/>
		</g>
		<path class="st10" d="M42.6,41.6c0,0-0.6,10.3-8.7,15.5c-3,3.5-9.6,2.2-11.3,1.3c-0.6-0.3-1.1-0.7-1.5-1l-0.2-0.2l0,0L18.1,54
			c-3.5-1.5-4.5-6.2-5.3-8.7C12,42.7,12.5,36,12.5,36C13,50.1,20,53.6,20,53.6c0-1,0.1-2.3,0-3.7c0,0,1,4.9,2.9,5.4
			c1.9,0.5,3.8-0.9,3.8-1.7c0,0,1.5,0.3,2.2,0c0,0-0.6,3.2,1.7,2.1c0,0,3.1,0.8,4.6-6.2c0,0,0.4,1.1,0,3.1c0.7-0.7,4.9-5.4,5.6-11.9
			L42.6,41.6z"/>
		<g class="st11">
			<path class="st12" d="M23.1,32.5C23.1,32.5,23.1,32.4,23.1,32.5c-0.1-0.1-0.2-0.2-0.2-0.3c-0.1-0.1-0.2-0.2-0.3-0.3
				c-0.1,0-0.1-0.1-0.2-0.1c-0.1,0-0.2-0.1-0.2-0.1c-0.1,0-0.2-0.1-0.3-0.1c-0.1,0-0.2-0.1-0.3-0.1c-0.1,0-0.2,0-0.3-0.1
				c-0.1,0-0.2,0-0.3,0c-0.1,0-0.2,0-0.4,0c-0.1,0-0.2,0-0.4,0.1c-0.1,0-0.2,0.1-0.4,0.1c-0.1,0-0.1,0-0.2,0.1l-0.2,0.1l-0.2,0.1
				L19,31.9c-0.1,0.1-0.2,0.1-0.4,0.2c-0.2,0.1-0.5,0.2-0.7,0.3c-0.2,0.1-0.5,0.2-0.7,0.2c-0.1,0-0.2,0.1-0.3,0.1
				c-0.1,0-0.2,0.1-0.3,0.1c-0.2,0-0.4,0.1-0.5,0.1c-0.2,0-0.3,0-0.4,0c-0.2,0-0.4,0-0.4,0s0,0,0.1,0c0.1,0,0.2,0,0.3,0
				c0.1,0,0.2,0,0.4-0.1c0.1,0,0.2,0,0.2-0.1c0.1,0,0.2,0,0.3-0.1c0.1,0,0.2-0.1,0.3-0.1c0.1,0,0.2-0.1,0.3-0.1
				c0.1,0,0.2-0.1,0.3-0.1c0.1,0,0.2-0.1,0.3-0.1c0.1,0,0.2-0.1,0.3-0.1c0.1-0.1,0.2-0.1,0.3-0.2c0.1-0.1,0.2-0.1,0.4-0.2l0.2-0.1
				l0.2-0.1l0.2-0.1c0.1,0,0.1-0.1,0.2-0.1c0.1,0,0.3-0.1,0.4-0.1c0.1,0,0.3,0,0.4-0.1c0.1,0,0.3,0,0.4,0c0.1,0,0.3,0,0.4,0
				c0.1,0,0.2,0.1,0.3,0.1c0.1,0,0.2,0.1,0.3,0.1c0.1,0,0.2,0.1,0.3,0.1c0.1,0.1,0.2,0.1,0.2,0.2c0.1,0.1,0.1,0.1,0.2,0.2
				c0.1,0.1,0.2,0.2,0.3,0.3C22.9,32.2,23,32.3,23.1,32.5C23.1,32.4,23.1,32.5,23.1,32.5z"/>
		</g>
		<g>
			<path d="M29,28.9c0,0,4.2-0.3,6.8,0.3c2.5,0.6,4.1,2.3,4.8,2.4c0.6,0.1-1-2.8-1.7-3.1c-0.7-0.3-2-1.7-3.5-2c0,0-0.7,0.9-2,1.1
				C31.9,27.8,28.1,27.7,29,28.9z"/>
		</g>
		<g class="st11">
			<path class="st12" d="M28.8,33.1c0,0,0.1-0.1,0.3-0.4c0.2-0.2,0.4-0.5,0.7-0.9c0.2-0.2,0.4-0.4,0.6-0.5c0.2-0.2,0.5-0.3,0.7-0.5
				c0.1-0.1,0.3-0.1,0.5-0.2l0.1,0c0,0,0.1,0,0.1,0c0.1,0,0.2,0,0.2,0c0.3,0,0.6,0,1,0.1c0.3,0,0.6,0.1,0.9,0.2
				c0.3,0.1,0.6,0.2,0.9,0.3c0.3,0.1,0.6,0.2,0.8,0.3c0.1,0.1,0.2,0.1,0.4,0.2c0.1,0.1,0.2,0.1,0.3,0.2c0.2,0.1,0.4,0.2,0.6,0.3
				c0.2,0.1,0.3,0.2,0.5,0.2c0.2,0.1,0.4,0.2,0.4,0.2s-0.6-0.2-1.5-0.6c-0.2-0.1-0.5-0.2-0.7-0.3c-0.3-0.1-0.5-0.2-0.8-0.3
				c-0.3-0.1-0.6-0.2-0.9-0.3c-0.3-0.1-0.6-0.1-0.9-0.2c-0.3,0-0.6-0.1-0.9-0.1c-0.1,0-0.2,0-0.2,0c0,0-0.1,0-0.1,0l-0.1,0
				c-0.1,0-0.3,0.1-0.4,0.1c-0.3,0.1-0.5,0.3-0.7,0.4c-0.2,0.2-0.4,0.3-0.6,0.5c-0.3,0.3-0.6,0.6-0.8,0.8
				C28.9,33,28.8,33.1,28.8,33.1z"/>
		</g>
		<g id="XMLID_1_">
			<path class="st3" d="M29.2,33.4c0,0,0.9-0.7,1.8-1.6c0.8-0.9,2.7-0.5,5,0.6c0,0,1.6,0.6,2.2,0.6C38.3,33.1,32.6,35,29.2,33.4z"/>
			<path d="M38.3,33c-0.4,0-1.4-0.3-1.9-0.5c-0.2-0.1-0.3-0.1-0.4-0.1c-2.6-1.2-4.3-1.5-5.1-0.7c0,0,0,0,0,0
				c-0.8,0.9-1.7,1.6-1.8,1.6l-0.1,0.1l0.1,0c0.5,0.2,1.1,0.4,1.7,0.5c0.6,0.1,1.1,0.1,1.7,0.1c1.4,0,2.8-0.2,3.8-0.5
				c1.1-0.2,1.9-0.5,1.9-0.5l0.3-0.1L38.3,33z M36.4,33.5c-1.5,0.3-3.7,0.7-5.6,0.3c-0.5-0.1-1-0.2-1.5-0.4c0.2-0.2,0.9-0.7,1.5-1.3
				c0.1-0.1,0.1-0.1,0.2-0.2c0.7-0.8,2.4-0.6,5,0.6c0,0,0.2,0.1,0.4,0.2c0.4,0.2,1.1,0.4,1.6,0.5C37.7,33.2,37.1,33.4,36.4,33.5z"/>
		</g>
		<g class="st11">
			<path class="st12" d="M32.2,40.5c0,0,0.1,0,0.1,0.1c0,0,0.1,0.1,0.2,0.1c0.1,0,0.1,0.1,0.2,0.1c0.1,0,0.1,0.1,0.2,0.2
				c0.1,0.1,0.2,0.1,0.2,0.2c0.1,0.1,0.2,0.2,0.2,0.2c0.1,0.1,0.1,0.2,0.2,0.3c0.1,0.1,0.1,0.2,0.2,0.3c0.1,0.1,0.1,0.2,0.2,0.3
				c0.1,0.1,0.1,0.2,0.1,0.3c0,0.1,0.1,0.2,0.1,0.3c0,0.1,0.1,0.2,0.1,0.2c0,0.1,0,0.1,0,0.2c0,0.1,0,0.2,0,0.2s0,0-0.1-0.1
				c0,0-0.1-0.1-0.1-0.1c0-0.1-0.1-0.1-0.1-0.2c0-0.1-0.1-0.1-0.2-0.2c-0.1-0.1-0.1-0.2-0.2-0.2c-0.1-0.1-0.1-0.2-0.2-0.3
				c-0.1-0.1-0.1-0.2-0.2-0.3c-0.1-0.1-0.1-0.2-0.2-0.3c0,0-0.1-0.1-0.1-0.1c0,0-0.1-0.1-0.1-0.1c-0.1-0.1-0.1-0.2-0.2-0.2
				c-0.1-0.1-0.1-0.1-0.2-0.2C32.4,40.7,32.2,40.5,32.2,40.5z"/>
		</g>
		<g class="st11">
			<path class="st12" d="M19.5,44.6c0,0,0-0.1,0-0.2c0-0.1,0-0.3,0-0.4c0-0.2,0-0.4,0.1-0.6c0-0.1,0.1-0.2,0.1-0.3
				c0-0.1,0.1-0.2,0.1-0.3c0-0.1,0.1-0.2,0.1-0.3c0.1-0.1,0.1-0.2,0.2-0.3c0.1-0.1,0.1-0.2,0.2-0.3c0.1-0.1,0.1-0.2,0.2-0.2
				c0.1-0.1,0.1-0.1,0.2-0.2c0.1,0,0.1-0.1,0.1-0.1c0.1-0.1,0.1-0.1,0.1-0.1s0,0.1-0.1,0.1c0,0-0.1,0.1-0.1,0.2
				c0,0.1-0.1,0.1-0.1,0.2c0,0.1-0.1,0.2-0.1,0.2c0,0.1-0.1,0.2-0.1,0.3c0,0.1-0.1,0.2-0.1,0.3c0,0.1-0.1,0.2-0.1,0.3
				c0,0.1-0.1,0.2-0.1,0.3c0,0.1-0.1,0.2-0.1,0.3c-0.1,0.2-0.1,0.4-0.2,0.6c-0.1,0.2-0.1,0.3-0.1,0.4C19.6,44.5,19.5,44.6,19.5,44.6
				z"/>
		</g>
		<g class="st11">
			<path class="st12" d="M24.2,39.3c0,0,0.1-0.1,0.2-0.1c0.1,0,0.1-0.1,0.2-0.1c0.1,0,0.2-0.1,0.3-0.1c0.1,0,0.2-0.1,0.3-0.1
				c0.1,0,0.2-0.1,0.4-0.1c0.1,0,0.1,0,0.2,0c0.1,0,0.1,0,0.2,0c0.1,0,0.1,0,0.2,0l0.1,0l0.1,0c0.1,0,0.2,0,0.2,0c0.1,0,0.2,0,0.2,0
				c0.1,0,0.1,0,0.2,0c0.1,0,0.1,0,0.2,0c0.1,0,0.1,0,0.2,0.1c0.1,0,0.1,0,0.2,0.1c0.1,0,0.1,0,0.2,0.1c0.1,0,0.1,0.1,0.2,0.1
				c0.1,0.1,0.2,0.1,0.3,0.2c0.1,0.1,0.1,0.1,0.2,0.1c0.1,0.1,0.2,0.1,0.2,0.1s-0.1,0-0.2-0.1c-0.1,0-0.1-0.1-0.2-0.1
				c-0.1,0-0.2-0.1-0.3-0.1c-0.1,0-0.1,0-0.2,0c-0.1,0-0.1,0-0.2,0c-0.1,0-0.1,0-0.2,0c-0.1,0-0.1,0-0.2,0c-0.1,0-0.1,0-0.2,0
				c-0.1,0-0.1,0-0.2,0c-0.1,0-0.1-0.2-0.2-0.2l-0.2-0.2h-0.1l-0.1,0.2c-0.1,0-0.1,0.1-0.2,0.1c-0.1,0-0.3,0.1-0.4,0.1
				c-0.1,0-0.3,0.1-0.4,0.1c-0.1,0-0.2,0.1-0.3,0.1c-0.1,0-0.2,0.1-0.3,0.1c-0.1,0-0.2,0-0.2,0.1C24.3,39.3,24.2,39.3,24.2,39.3z"/>
		</g>
		<g class="st11">
			<path class="st12" d="M29.1,33.7c0,0,0.1,0.1,0.4,0.2c0.2,0.1,0.6,0.3,1,0.4c0.2,0.1,0.5,0.2,0.7,0.2c0.3,0.1,0.5,0.1,0.8,0.2
				c0.3,0.1,0.6,0.1,0.9,0.1c0.3,0,0.6,0.1,0.9,0.1c0.3,0,0.6,0,0.9,0c0.1,0,0.3,0,0.4,0c0.1,0,0.1,0,0.2,0c0.1,0,0.1,0,0.2,0
				c0.1,0,0.1,0,0.2,0c0.1,0,0.1,0,0.2,0c0.1,0,0.3-0.1,0.4-0.1c0.3-0.1,0.5-0.1,0.7-0.2c0.1,0,0.2-0.1,0.3-0.1
				c0.1,0,0.2-0.1,0.3-0.1c0.2-0.1,0.3-0.1,0.4-0.2c0.2-0.1,0.4-0.2,0.4-0.2s-0.1,0.1-0.4,0.2c-0.1,0.1-0.3,0.2-0.4,0.3
				c-0.2,0.1-0.4,0.2-0.6,0.3c-0.1,0-0.2,0.1-0.3,0.1c-0.1,0.1-0.2,0.1-0.4,0.1c-0.1,0-0.3,0.1-0.4,0.1c-0.1,0-0.1,0-0.2,0.1
				c-0.1,0-0.1,0-0.2,0c-0.1,0-0.1,0-0.2,0c-0.1,0-0.1,0-0.2,0c-0.1,0-0.2,0-0.2,0c-0.1,0-0.2,0-0.2,0c-0.3,0-0.6,0-0.9,0
				c-0.3,0-0.6,0-0.9-0.1c-0.1,0-0.2,0-0.2,0c-0.1,0-0.2,0-0.2,0c-0.2,0-0.3-0.1-0.4-0.1c-0.3-0.1-0.6-0.2-0.8-0.3
				c-0.3-0.1-0.5-0.2-0.7-0.3c-0.4-0.2-0.8-0.4-1-0.6C29.3,33.9,29.2,33.8,29.1,33.7C29.1,33.7,29.1,33.7,29.1,33.7z"/>
		</g>
		<g class="st11">
			<path class="st12" d="M23,34.8c0,0-0.1,0.1-0.3,0.2c-0.1,0.1-0.2,0.1-0.3,0.2c-0.1,0.1-0.3,0.2-0.5,0.2c-0.2,0.1-0.4,0.2-0.6,0.2
				c-0.2,0.1-0.4,0.1-0.7,0.2c-0.2,0.1-0.5,0.1-0.7,0.1c-0.2,0-0.5,0-0.8,0.1c-0.1,0-0.3,0-0.4,0c-0.1,0-0.3,0-0.4,0
				c-0.2,0-0.5-0.1-0.7-0.1c-0.2-0.1-0.4-0.1-0.6-0.2c-0.1,0-0.2-0.1-0.3-0.1c-0.1,0-0.2-0.1-0.3-0.1c-0.2-0.1-0.3-0.2-0.4-0.3
				c-0.1-0.1-0.2-0.2-0.3-0.2c-0.2-0.1-0.3-0.2-0.3-0.2s0.1,0.1,0.3,0.2c0.1,0.1,0.2,0.1,0.3,0.2c0.1,0,0.1,0.1,0.2,0.1
				c0.1,0,0.2,0.1,0.2,0.1c0.1,0,0.2,0.1,0.3,0.1c0.1,0,0.2,0.1,0.3,0.1c0.2,0.1,0.4,0.1,0.6,0.2c0.2,0.1,0.5,0.1,0.7,0.1
				c0.1,0,0.2,0,0.4,0c0.1,0,0.2,0,0.4,0c0.2,0,0.5,0,0.7,0c0.1,0,0.2,0,0.4,0c0.1,0,0.2,0,0.3-0.1c0.2,0,0.4-0.1,0.6-0.1
				c0.2-0.1,0.4-0.1,0.6-0.2c0.4-0.1,0.6-0.2,0.8-0.3C22.8,34.9,22.8,34.9,23,34.8C22.9,34.8,23,34.8,23,34.8z"/>
		</g>
		<g>
			<g id="XMLID_3_">
				<path class="st3" d="M23.2,34c0,0-0.9-2.5-2.9-2c-2.4,0.6-4,1.9-5.3,1.9C15,33.8,20.4,35.7,23.2,34z"/>
				<path d="M23.3,33.9c0,0-0.5-1.3-1.5-1.9c-0.4-0.2-0.9-0.3-1.5-0.2c-1.2,0.3-2.1,0.7-2.9,1.1c-0.3,0.2-0.6,0.3-0.9,0.4
					c-0.5,0.2-1,0.3-1.4,0.3l-0.4,0l0.4,0.1c0,0,0.6,0.2,1.5,0.4c0.9,0.2,2.2,0.4,3.5,0.4c0.7,0,1.4-0.1,2-0.2
					C22.5,34.4,22.9,34.2,23.3,33.9L23.3,33.9L23.3,33.9z M22.1,34.4c-1.8,0.5-4.1,0.1-5.6-0.2c-0.5-0.1-0.9-0.2-1.1-0.3
					c0.3,0,0.7-0.2,1.1-0.3c0.3-0.1,0.6-0.3,1-0.4c0.8-0.4,1.8-0.8,2.9-1.1c0.6-0.2,1.1,0,1.5,0.3c0.8,0.5,1.2,1.4,1.3,1.7
					C22.8,34.1,22.5,34.3,22.1,34.4z"/>
			</g>
			<g>
				<path d="M22.2,33.9c0,0.2-0.1,0.3-0.1,0.5c0,0,0,0,0,0.1c0,0,0,0,0,0.1c-0.6,0.2-1.3,0.2-2,0.2c-1.3,0-2.6-0.2-3.5-0.4
					c0,0,0,0,0-0.1c0,0,0,0,0-0.1c0-0.2-0.1-0.4-0.1-0.6c0,0,0,0,0-0.1c0,0,0,0,0-0.1c0.3-0.1,0.6-0.3,0.9-0.4
					c0.8-0.4,1.8-0.8,2.9-1.1c0.6-0.1,1.1,0,1.5,0.2c0,0,0,0.1,0.1,0.1c0,0,0,0.1,0.1,0.1C22.1,32.8,22.2,33.3,22.2,33.9z"/>
				
					<ellipse transform="matrix(0.1223 -0.9925 0.9925 0.1223 -15.0265 48.7832)" class="st3" cx="20.1" cy="32.9" rx="0.7" ry="0.7"/>
				
					<ellipse transform="matrix(0.1223 -0.9925 0.9925 0.1223 -15.9606 48.6084)" class="st3" cx="19.5" cy="33.3" rx="0.5" ry="0.5"/>
			</g>
		</g>
		<g>
			<path d="M36.4,33.4c0,0,0,0.1,0,0.1c0,0,0,0,0,0.1c0,0,0,0,0,0.1c-1.1,0.2-2.4,0.5-3.8,0.5c-0.6,0-1.2,0-1.7-0.1c0,0,0,0,0-0.1v0
				c0,0,0,0,0-0.1c-0.1-0.4-0.1-0.8-0.1-1.2c0-0.2,0.1-0.4,0.1-0.6c0,0,0-0.1,0.1-0.1c0-0.1,0.1-0.1,0.1-0.2
				c0.8-0.8,2.5-0.6,5.1,0.7c0,0,0.1,0.1,0.4,0.1c0,0,0,0,0,0.1c0,0,0,0,0,0.1C36.5,32.9,36.5,33.1,36.4,33.4z"/>
			<ellipse transform="matrix(0.1221 -0.9925 0.9925 0.1221 -2.1496 62.6704)" class="st3" cx="34.4" cy="32.6" rx="0.7" ry="0.7"/>
			<ellipse transform="matrix(0.122 -0.9925 0.9925 0.122 -3.1517 62.4881)" class="st3" cx="33.7" cy="33" rx="0.5" ry="0.5"/>
		</g>
	</g>
</g>
<g>
</g>
<g>
</g>
<g>
</g>
<g>
</g>
<g>
</g>
<g>
</g>
<g>
</g>
<g>
</g>
<g>
</g>
<g>
</g>
<g>
</g>
<g>
</g>
<g>
</g>
<g>
</g>
<g>
</g>
</svg>
