<?xml version="1.0" encoding="utf-8"?>
<!-- Generator: Adobe Illustrator 21.1.0, SVG Export Plug-In . SVG Version: 6.00 Build 0)  -->
<svg version="1.1" xmlns="http://www.w3.org/2000/svg" xmlns:xlink="http://www.w3.org/1999/xlink" x="0px" y="0px"
	 viewBox="0 0 210 130" style="enable-background:new 0 0 210 130;" xml:space="preserve">
<style type="text/css">
	.st0{fill:#313238;}
	.st1{opacity:0.55;}
	.st2{fill:#FFFFFF;}
</style>
<g id="Layer_1">
	<g>
		<rect class="st0" width="210" height="130"/>
	</g>
	<g class="st1">
		<path class="st2" d="M84.6,89.9c-0.3,0.3-0.7,0.3-1.1-0.2c-0.5-0.4-0.5-0.7-0.2-1c0.3-0.3,0.7-0.3,1.1,0.2
			C84.8,89.3,84.8,89.6,84.6,89.9z M82.3,86.6c0.3,0.4,0.3,0.8,0,1c-0.3,0.2-0.6,0.1-0.9-0.4c-0.3-0.5-0.3-0.8,0-1
			C81.7,86,82,86.1,82.3,86.6z M78.9,83.3c-0.2,0.3-0.4,0.3-0.7,0.1c-0.4-0.2-0.5-0.4-0.4-0.7c0.1-0.2,0.3-0.2,0.7-0.1
			C78.9,82.8,79,83.1,78.9,83.3z M80.6,85.2c-0.2,0.3-0.5,0.2-0.9-0.2c-0.3-0.4-0.4-0.7-0.1-0.9c0.2-0.2,0.5-0.2,0.9,0.2
			C80.8,84.7,80.9,85,80.6,85.2z M87.7,91.3c-0.1,0.4-0.5,0.5-1,0.3c-0.6-0.1-0.9-0.4-0.7-0.8c0.1-0.4,0.5-0.5,1-0.4
			C87.5,90.6,87.8,90.9,87.7,91.3z M91.1,91.6c0,0.4-0.3,0.6-0.9,0.6c-0.6,0.1-0.9-0.1-0.9-0.6c0-0.4,0.3-0.6,0.9-0.6
			C90.8,90.9,91.1,91.1,91.1,91.6z M94.3,91c0.1,0.4-0.2,0.6-0.8,0.8c-0.6,0.1-0.9,0-1-0.4s0.2-0.7,0.8-0.8
			C93.9,90.5,94.2,90.6,94.3,91z M147,38.8v52.5c0,4.3-1.5,8-4.6,11.1s-6.8,4.6-11.1,4.6H119c-0.6,0-1,0-1.3-0.1s-0.7-0.1-1.1-0.3
			s-0.7-0.4-0.9-0.8s-0.3-0.9-0.3-1.5V91.3c0-3.5-0.9-6.1-2.8-7.8c2.1-0.2,3.9-0.5,5.6-1s3.4-1.1,5.1-2.1s3.2-2.2,4.4-3.6
			s2.2-3.4,2.9-5.7c0.7-2.4,1.1-5.1,1.1-8.2c0-4.4-1.4-8.2-4.3-11.3c1.3-3.3,1.2-7-0.4-11.2c-1-0.3-2.5-0.1-4.4,0.6s-3.6,1.5-5,2.4
			l-2.1,1.3c-3.4-0.9-6.9-1.4-10.5-1.4s-7.1,0.5-10.5,1.4c-0.6-0.4-1.4-0.9-2.3-1.5s-2.5-1.3-4.6-2.1s-3.6-1.1-4.7-0.7
			c-1.6,4.1-1.7,7.8-0.4,11.2c-2.9,3.1-4.3,6.9-4.3,11.3c0,3.1,0.4,5.8,1.1,8.2c0.7,2.4,1.7,4.3,2.9,5.7s2.6,2.7,4.4,3.7
			s3.5,1.7,5.1,2.1s3.5,0.8,5.6,1c-1.5,1.3-2.4,3.2-2.7,5.6c-0.8,0.4-1.6,0.6-2.5,0.8s-1.9,0.3-3.1,0.3s-2.4-0.4-3.6-1.2
			s-2.2-1.9-3-3.4c-0.7-1.2-1.6-2.1-2.7-2.8s-2-1.2-2.7-1.3L76,81.4c-0.8,0-1.3,0.1-1.6,0.2S74,82,74.2,82.2s0.3,0.5,0.5,0.8
			s0.5,0.5,0.7,0.7l0.4,0.3c0.8,0.4,1.6,1.1,2.4,2.1s1.4,2,1.7,2.8l0.5,1.3c0.5,1.4,1.3,2.5,2.4,3.4s2.4,1.4,3.7,1.6
			s2.6,0.4,3.8,0.4s2.2,0,3-0.2l1.3-0.2c0,1.4,0,3.3,0,5.6s0,3.6,0,3.7c0,0.8-0.2,1.4-0.6,1.8s-0.8,0.7-1.2,0.7s-1,0.1-1.8,0.1H78.8
			c-4.3,0-8-1.5-11.1-4.6S63,95.6,63,91.2V38.8c0-4.3,1.5-8,4.6-11.1S74.4,23,78.8,23h52.5c4.3,0,8,1.5,11.1,4.6S147,34.4,147,38.8z
			"/>
	</g>
</g>
<g id="Layer_2">
</g>
</svg>
