<svg id="Layer_2" xmlns="http://www.w3.org/2000/svg" width="1250" height="200" viewBox="0 0 1250 200"><style>.st0{opacity:.2}.st1{opacity:.21}.st2{opacity:.26}.st3{opacity:.25}</style><g class="st0"><g id="Layer_5_1_"><path d="M1041.1 32.8c-1.9 2.7-1.6 6.2-.2 9.1 0 .1.1.1.1.2 0 0 0 .1.1.1v.1s0 .1.1.1c0 .1.1.2.1.2l.1.1c.1.1.1.2.2.2 0 0 0 .1.1.1.1.1.2.2.2.3v.1c.1.1.1.2.2.3l.1.1c.1.1.1.2.2.2 0 0 0 .1.1.1l.3.3.3.3.1.1.2.2.1.1.3.3h.1c.1.1.2.2.3.2l.1.1c.1.1.2.1.2.2l.1.1c.1.1.2.1.3.2 0 0 .1 0 .1.1.1.1.2.1.2.2 0 0 .1 0 .1.1.1.1.3.2.4.2 0 0 .1 0 .1.1.1.1.2.1.3.2.1 0 .1.1.2.1s.1.1.2.1h.1c.1.1.2.1.3.2h.1c.1.1.3.1.4.2h.1c.1 0 .2.1.4.1.1 0 .3.1.4.1h.1c.1 0 .3.1.4.1 9.1 1.7 11.7-5.4 11.7-5.4-2.2 2.9-6.1 3.6-9.9 2.8-.1 0-.3-.1-.4-.1h-.1c-.1 0-.3-.1-.4-.1h-.1c-.1 0-.2-.1-.4-.1h-.1c-.1-.1-.3-.1-.4-.2h-.1c-.1 0-.2-.1-.3-.1h-.1c-.1 0-.2-.1-.2-.1-.1 0-.1-.1-.2-.1-.1-.1-.2-.1-.3-.2 0 0-.1 0-.1-.1-.1-.1-.3-.2-.4-.2 0 0-.1 0-.1-.1-.1-.1-.2-.1-.3-.2 0 0-.1 0-.1-.1-.1-.1-.2-.1-.3-.2l-.1-.1c-.1-.1-.2-.1-.2-.2l-.1-.1c-.1-.1-.2-.2-.3-.2l-.3-.3-.1-.1-.2-.2-.1-.1-.3-.3-.3-.3s0-.1-.1-.1c-.1-.1-.1-.2-.2-.2 0 0 0-.1-.1-.1-.1-.1-.2-.2-.2-.3-2.1-2.8-2.8-6.7-1.2-9.9"/><path d="M1046.9 30.5c-1.4 2-1.3 4.6-.2 6.6.2.3.4.7.6 1 .2.3.4.6.7.9l.3.3.1.1.3.3c.1.1.2.2.4.3 0 0 .1 0 .1.1.1.1.2.2.4.3.1 0 .1.1.2.1 0 0 .1 0 .1.1.1.1.2.1.3.2.1 0 .2.1.2.1h.1c.1 0 .1.1.2.1.1.1.2.1.4.2h.1c.1 0 .2.1.3.1h.1c.1 0 .2.1.3.1h.1c.1 0 .3.1.4.1 7 1.2 8.6-4.2 8.6-4.2-1.5 2.1-4.3 3.1-7.3 2.3-.1 0-.3-.1-.4-.1h-.1c-.1 0-.2-.1-.3-.1h-.1c-.1 0-.2-.1-.3-.1h-.1c-.1-.1-.2-.1-.4-.2-.1 0-.1-.1-.2-.1 0 0-.1 0-.1-.1-.1 0-.2-.1-.2-.1h-.1c-.1-.1-.2-.1-.3-.2 0 0-.1 0-.1-.1-.1 0-.1-.1-.2-.1-.1-.1-.3-.2-.4-.3 0 0-.1 0-.1-.1-1.3-1-2.4-2.5-2.9-4.1-.5-1.7-.4-3.5.5-5.1"/><path d="M1051.8 28.8c-.8 1.2-.9 2.6-.3 3.9.6 1.4 1.8 2.5 3.2 3 .1 0 .1 0 .2.1h.1c.1 0 .2.1.2.1 3.9.7 4.9-2 5.2-2.4-.9 1.3-2.5 1.6-4.4 1.2-.1 0-.3-.1-.5-.1-.2-.1-.4-.1-.5-.2-.3-.2-.7-.4-1-.6-1.7-1.3-2.7-3.7-1.6-5.7"/></g></g><path d="M1034.9 143.2c-6.6 0-11.9 5.3-11.9 11.9 0 6.6 5.3 11.9 11.9 11.9s11.9-5.3 11.9-11.9c.1-6.5-5.3-11.9-11.9-11.9zm6.8 15.2c0 .4-.2.8-.6 1l-5.6 3.2c-.2.1-.4.1-.6.1-.2 0-.4 0-.6-.2l-1.9-1.1c-.3-.2-.1-.2 0-.2.4-.1.5-.2.8-.4h.1l1.4.9h.2l5.6-3.2.1-.1V152c0-.1 0-.1-.1-.1l-5.6-3.2h-.2l-5.6 3.2-.1.1v6.4s0 .1.1.1l1.5.9c.8.4 1.3-.1 1.3-.6v-6.3c0-.1.1-.2.2-.2h.7c.1 0 .2.1.2.2v6.4c0 1.1-.6 1.7-1.6 1.7-.3 0-.6 0-1.3-.4l-1.5-.8c-.4-.2-.6-.6-.6-1V152c0-.4.2-.8.6-1l5.6-3.2c.4-.2.8-.2 1.2 0l5.6 3.2c.4.2.6.6.6 1v6.4zm-5.4-2.7c-1.5-.1-2.5-.5-2.5-1.7 0-1.1 1-1.8 2.6-1.8 1.8 0 2.7.6 2.8 2v.1h-.8c-.1 0-.1 0-.2-.1-.2-.8-.6-1-1.7-1-1.3 0-1.4.5-1.4.8 0 .4.2.5 1.9.8 1.7.2 2.5.5 2.5 1.7s-1 1.9-2.8 1.9c-2.4 0-3-1.1-3-2.1 0-.1.1-.2.2-.2h.7c.1 0 .1 0 .2.1.1.7.4 1.1 1.9 1.1 1.2 0 1.7-.3 1.7-.9-.1-.3-.2-.6-2.1-.7z" class="st0"/><g class="st1"><path d="M222.2 2.7c-5.1 0-9.2 4.1-9.2 9.2 0 3.4 3.1 6.9 4.2 10.1 1.7 4.7 1.5 7.5 5 7.5 3.6 0 3.3-2.8 5-7.5 1.1-3.1 4.2-6.8 4.2-10.1 0-5.1-4.1-9.2-9.2-9.2zm2.2 22.7l-4.1.5c-.1-.4-.3-.9-.5-1.6l5.2-.6c-.1.2-.2.5-.2.7-.2.4-.3.7-.4 1zm-4.9-1.9c-.2-.5-.3-1-.5-1.6h6.5l-.3.9-5.7.7zm2.7 4.2c-.8 0-1.2-.1-1.7-1l3.5-.4c-.4 1.3-.8 1.4-1.8 1.4zm3.9-7.5h-7.8c-.4-.9-.9-1.8-1.4-2.7-1.1-2-2.2-4-2.2-5.7 0-4.1 3.4-7.5 7.5-7.5s7.5 3.4 7.5 7.5c0 1.7-1.1 3.7-2.2 5.7-.5.9-1 1.8-1.4 2.7z" id="bulb_1_"/></g><path d="M546.8 20.5h-7.1v-1h7.1v1zm14.7 0h-7.1v-1h7.1v1zm-29.5 0h-7.7v-1h7.7v1zm-15.5 0h-7.7v-1h7.7v1zm-15.5 0h-7.7v-1h7.7v1z" class="st2"/><path d="M749.6 20.5h-7.7v-1h7.7v1zm-15.5 0h-7.7v-1h7.7v1zm-15.5 0h-7.7v-1h7.7v1zm-15.5 0H696v-1h7.1v1z" class="st0"/><g class="st3"><path d="M185.1 87.5h-9.5v-12h9.5v.7l1.8-1.7v-.8h-13.1v15.6h13.1v-9.1l-1.8 1.7z"/><path d="M181 81.5l-.5 2 2-.5s.1 0 .1-.1l6.8-6.8-1.8-1.8-6.8 6.8c.2.3.2.3.2.4zm.4.2l1.1 1.1-1.2.3c0-.1 0-.1-.1-.2s-.1-.1-.2-.1l.4-1.1zm9.2-6.3c-.6-1.3-1.8-1.8-1.8-1.8l-.7.7 1.8 1.8.7-.7zm85 20.2c-.6 0-1 .1-1.2.1v3.8c.2.1.6.1 1 .1 1.5 0 2.5-.7 2.5-2.1 0-1.2-.9-1.9-2.3-1.9z"/><path d="M290.8 88.7h-23v22.2h23V88.7zM279 100c-.8.8-2.1 1.2-3.5 1.2-.4 0-.7 0-1-.1v4.2h-2v-11c.7-.1 1.7-.2 3.1-.2 1.5 0 2.6.3 3.3.9.7.5 1.1 1.4 1.1 2.5-.1 1-.4 1.9-1 2.5zm3.9 5.5c-1 0-1.9-.2-2.5-.6l.4-1.5c.5.3 1.3.6 2.1.6.9 0 1.3-.4 1.3-.9s-.3-.8-1.3-1.2c-1.6-.5-2.2-1.4-2.2-2.4 0-1.4 1.2-2.5 3.1-2.5.9 0 1.7.2 2.1.5l-.4 1.4c-.3-.2-1-.5-1.7-.5s-1.1.4-1.1.8c0 .5.4.8 1.4 1.1 1.5.5 2.1 1.3 2.2 2.5-.1 1.7-1.2 2.7-3.4 2.7zm-4.9 7.1h1v7.7h-1zm212.6 37.6h7.8v1h-7.8zm-46.6 0h7.8v1H444zm-15.6 0h7.8v1h-7.8zm46.7 0h7.8v1h-7.8zm-15.6 0h7.8v1h-7.8zm-59.5-5.1c-.3.8-.5 1.9-.7 2.7l-1.1 3.6h3.7l-1.1-3.6c-.3-.9-.5-1.9-.8-2.7z"/><path d="M403.2 18.5h-2.9v2.9h1v114.4h-14.2v14.3h-80.6V135h1v-2.9h-2.9v1H279v-5h-1v5h-54.5v-1h-1V34.2h-1v47.6h-32.7v1h32.7v49.4h-1v2.9h2.9v-1h81v1h1v64.4h1v-48.2H387v13.6h29.9v-13.5h3.7v-1h-3.7V136h-14.7V21.4h1v-1h84.9v-1h-84.9v-.9zm7.1 139h-2.7V147h2.7v10.5zm-1.4-14.9c.9 0 1.5.6 1.5 1.4 0 .8-.6 1.4-1.5 1.4s-1.5-.6-1.5-1.4c0-.8.7-1.4 1.5-1.4zm-2.4 14.9h-2.9l-1.3-4.1h-4.6l-1.3 4.1h-2.7l4.7-14.6h3.4l4.7 14.6z"/></g><path d="M1019.1 156.9h-7.7v-1h7.7v1zm-15.5 0h-7.7v-1h7.7v1zm-15.5 0h-7.7v-1h7.7v1zm-15.5 0h-7.7v-1h7.7v1zm-15.4 0h-7.7v-1h7.7v1z" class="st0"/><g class="st3"><path d="M1048 70.3h1V78h-1zm0-15.4h1v7.7h-1zm0 30.9h1v7.7h-1zM943.6 117h1v83h-1z"/><path d="M1049 104.2v-2.9h-1v2.9h-93.9l1.1-12.2h-21.9l1.1 12.2h-81.1l1.6-17.7H842V21.4h1v-2.9h-3v1h-85.3v1H840v1h1v65.1h-14.5l2.7 29.3 11.5 3.2.3-.1v30.3h-1v1h-31.5v1H840v1h2.9v-2.9h-1v-30.6l10.2-2.8 1-10.7h81.3l.9 9.4 8.9 2.4 8.9-2.4.9-9.4h122.5v-1H1049zm-200.2-7.6h-12.2l.3 3h11.6l-1 11.1-6.8 2-6.8-2-.5-5.1h3.9l.2 2 3.2 1 3.2-1 .4-4h-11l-.6-7.1-.4-4.1h17l-.5 4.2zm101.7 3.2l-6.2 2.3h6l-.8 8.6-5.3 1.6-5.3-1.6-.4-3.9h2.9l.3 1.6 2.5.8 2.5-.8.3-3.1h-8.5l-.3-3.1 6.1-2.3H938l-.3-3.1h13.1l-.3 3z"/></g><path d="M801.6 151.1h-7.7v-1h7.7v1zm-15.4 0h-7.7v-1h7.7v1zm-15.5 0H763v-1h7.7v1zm-15.5 0h-7.7v-1h7.7v1zm-15.5 0H732v-1h7.7v1z" class="st0"/></svg>