<?xml version="1.0" encoding="utf-8"?>
<!-- Generator: Adobe Illustrator 19.2.1, SVG Export Plug-In . SVG Version: 6.00 Build 0)  -->
<!DOCTYPE svg PUBLIC "-//W3C//DTD SVG 1.1//EN" "http://www.w3.org/Graphics/SVG/1.1/DTD/svg11.dtd">
<svg version="1.1" id="Layer_2" xmlns="http://www.w3.org/2000/svg" xmlns:xlink="http://www.w3.org/1999/xlink" x="0px" y="0px"
	 width="1250px" height="200px" viewBox="0 0 1250 200" style="enable-background:new 0 0 1250 200;" xml:space="preserve">
<style type="text/css">
	.st0{opacity:0.2;}
	.st1{opacity:0.21;}
	.st2{opacity:0.26;}
	.st3{opacity:0.25;}
</style>
<g>
	<g class="st0">
		<g id="Layer_5_1_">
			<path d="M1041.1,32.8c-1.9,2.7-1.6,6.2-0.2,9.1c0,0.1,0.1,0.1,0.1,0.2c0,0,0,0.1,0.1,0.1c0,0,0,0.1,0,0.1c0,0,0,0.1,0.1,0.1
				c0,0.1,0.1,0.2,0.1,0.2c0,0,0.1,0.1,0.1,0.1c0.1,0.1,0.1,0.2,0.2,0.2c0,0,0,0.1,0.1,0.1c0.1,0.1,0.2,0.2,0.2,0.3c0,0,0,0,0,0
				c0,0,0,0,0,0.1c0.1,0.1,0.1,0.2,0.2,0.3c0,0,0.1,0.1,0.1,0.1c0.1,0.1,0.1,0.2,0.2,0.2c0,0,0,0.1,0.1,0.1c0.1,0.1,0.2,0.2,0.3,0.3
				c0,0,0,0,0,0c0,0,0,0,0,0c0.1,0.1,0.2,0.2,0.3,0.3c0,0,0.1,0.1,0.1,0.1c0.1,0.1,0.1,0.1,0.2,0.2c0,0,0.1,0.1,0.1,0.1
				c0.1,0.1,0.2,0.2,0.3,0.3c0,0,0,0,0,0c0,0,0,0,0.1,0c0.1,0.1,0.2,0.2,0.3,0.2c0,0,0.1,0.1,0.1,0.1c0.1,0.1,0.2,0.1,0.2,0.2
				c0,0,0.1,0.1,0.1,0.1c0.1,0.1,0.2,0.1,0.3,0.2c0,0,0.1,0,0.1,0.1c0,0,0,0,0,0c0.1,0.1,0.2,0.1,0.2,0.2c0,0,0.1,0,0.1,0.1
				c0.1,0.1,0.3,0.2,0.4,0.2c0,0,0.1,0,0.1,0.1c0.1,0.1,0.2,0.1,0.3,0.2c0.1,0,0.1,0.1,0.2,0.1c0.1,0,0.1,0.1,0.2,0.1c0,0,0,0,0,0
				c0,0,0.1,0,0.1,0c0.1,0.1,0.2,0.1,0.3,0.2c0,0,0,0,0.1,0c0.1,0.1,0.3,0.1,0.4,0.2c0,0,0.1,0,0.1,0c0.1,0,0.2,0.1,0.4,0.1
				c0,0,0,0,0,0c0.1,0,0.3,0.1,0.4,0.1c0,0,0.1,0,0.1,0c0.1,0,0.3,0.1,0.4,0.1c9.1,1.7,11.7-5.4,11.7-5.4c-2.2,2.9-6.1,3.6-9.9,2.8
				c-0.1,0-0.3-0.1-0.4-0.1c0,0-0.1,0-0.1,0c-0.1,0-0.3-0.1-0.4-0.1c0,0,0,0-0.1,0c-0.1,0-0.2-0.1-0.4-0.1c0,0-0.1,0-0.1,0
				c-0.1-0.1-0.3-0.1-0.4-0.2c0,0-0.1,0-0.1,0c-0.1,0-0.2-0.1-0.3-0.1c0,0-0.1,0-0.1,0c-0.1,0-0.2-0.1-0.2-0.1
				c-0.1,0-0.1-0.1-0.2-0.1c-0.1-0.1-0.2-0.1-0.3-0.2c0,0-0.1,0-0.1-0.1c-0.1-0.1-0.3-0.2-0.4-0.2c0,0-0.1,0-0.1-0.1
				c-0.1-0.1-0.2-0.1-0.3-0.2c0,0-0.1,0-0.1-0.1c-0.1-0.1-0.2-0.1-0.3-0.2c0,0-0.1-0.1-0.1-0.1c-0.1-0.1-0.2-0.1-0.2-0.2
				c0,0-0.1-0.1-0.1-0.1c-0.1-0.1-0.2-0.2-0.3-0.2c0,0,0,0,0,0c-0.1-0.1-0.2-0.2-0.3-0.3c0,0-0.1-0.1-0.1-0.1
				c-0.1-0.1-0.1-0.1-0.2-0.2c0,0-0.1-0.1-0.1-0.1c-0.1-0.1-0.2-0.2-0.3-0.3c0,0,0,0,0,0c-0.1-0.1-0.2-0.2-0.3-0.3
				c0,0,0-0.1-0.1-0.1c-0.1-0.1-0.1-0.2-0.2-0.2c0,0,0-0.1-0.1-0.1c-0.1-0.1-0.2-0.2-0.2-0.3c-2.1-2.8-2.8-6.7-1.2-9.9"/>
			<path d="M1046.9,30.5c-1.4,2-1.3,4.6-0.2,6.6c0.2,0.3,0.4,0.7,0.6,1c0.2,0.3,0.4,0.6,0.7,0.9c0.1,0.1,0.2,0.2,0.3,0.3
				c0,0,0.1,0.1,0.1,0.1c0.1,0.1,0.2,0.2,0.3,0.3c0,0,0,0,0,0c0,0,0,0,0,0c0.1,0.1,0.2,0.2,0.4,0.3c0,0,0.1,0,0.1,0.1
				c0.1,0.1,0.2,0.2,0.4,0.3c0,0,0,0,0,0c0.1,0,0.1,0.1,0.2,0.1c0,0,0.1,0,0.1,0.1c0.1,0.1,0.2,0.1,0.3,0.2c0,0,0,0,0,0
				c0.1,0,0.2,0.1,0.2,0.1c0,0,0.1,0,0.1,0c0.1,0,0.1,0.1,0.2,0.1c0,0,0,0,0,0c0.1,0.1,0.2,0.1,0.4,0.2c0,0,0.1,0,0.1,0
				c0.1,0,0.2,0.1,0.3,0.1c0,0,0.1,0,0.1,0c0.1,0,0.2,0.1,0.3,0.1c0,0,0.1,0,0.1,0c0.1,0,0.3,0.1,0.4,0.1c7,1.2,8.6-4.2,8.6-4.2
				c-1.5,2.1-4.3,3.1-7.3,2.3c-0.1,0-0.3-0.1-0.4-0.1c0,0-0.1,0-0.1,0c-0.1,0-0.2-0.1-0.3-0.1c0,0-0.1,0-0.1,0
				c-0.1,0-0.2-0.1-0.3-0.1c0,0-0.1,0-0.1,0c-0.1-0.1-0.2-0.1-0.4-0.2c-0.1,0-0.1-0.1-0.2-0.1c0,0-0.1,0-0.1-0.1
				c-0.1,0-0.2-0.1-0.2-0.1c0,0,0,0-0.1,0c-0.1-0.1-0.2-0.1-0.3-0.2c0,0-0.1,0-0.1-0.1c-0.1,0-0.1-0.1-0.2-0.1
				c-0.1-0.1-0.3-0.2-0.4-0.3c0,0-0.1,0-0.1-0.1c-1.3-1-2.4-2.5-2.9-4.1c-0.5-1.7-0.4-3.5,0.5-5.1"/>
			<path d="M1051.8,28.8c-0.8,1.2-0.9,2.6-0.3,3.9c0.6,1.4,1.8,2.5,3.2,3c0.1,0,0.1,0,0.2,0.1c0,0,0.1,0,0.1,0
				c0.1,0,0.2,0.1,0.2,0.1c3.9,0.7,4.9-2,5.2-2.4c-0.9,1.3-2.5,1.6-4.4,1.2c-0.1,0-0.3-0.1-0.5-0.1c-0.2-0.1-0.4-0.1-0.5-0.2
				c-0.3-0.2-0.7-0.4-1-0.6c-1.7-1.3-2.7-3.7-1.6-5.7"/>
		</g>
	</g>
	<g class="st0">
		<path d="M1034.9,143.2c-6.6,0-11.9,5.3-11.9,11.9c0,6.6,5.3,11.9,11.9,11.9s11.9-5.3,11.9-11.9
			C1046.9,148.6,1041.5,143.2,1034.9,143.2z M1041.7,158.4c0,0.4-0.2,0.8-0.6,1l-5.6,3.2c-0.2,0.1-0.4,0.1-0.6,0.1
			c-0.2,0-0.4,0-0.6-0.2l-1.9-1.1c-0.3-0.2-0.1-0.2,0-0.2c0.4-0.1,0.5-0.2,0.8-0.4c0,0,0.1,0,0.1,0l1.4,0.9c0,0,0.1,0,0.2,0l5.6-3.2
			c0,0,0.1-0.1,0.1-0.1V152c0-0.1,0-0.1-0.1-0.1l-5.6-3.2c0,0-0.1,0-0.2,0l-5.6,3.2c0,0-0.1,0.1-0.1,0.1v6.4c0,0,0,0.1,0.1,0.1
			l1.5,0.9c0.8,0.4,1.3-0.1,1.3-0.6v-6.3c0-0.1,0.1-0.2,0.2-0.2h0.7c0.1,0,0.2,0.1,0.2,0.2v6.4c0,1.1-0.6,1.7-1.6,1.7
			c-0.3,0-0.6,0-1.3-0.4l-1.5-0.8c-0.4-0.2-0.6-0.6-0.6-1v-6.4c0-0.4,0.2-0.8,0.6-1l5.6-3.2c0.4-0.2,0.8-0.2,1.2,0l5.6,3.2
			c0.4,0.2,0.6,0.6,0.6,1V158.4z M1036.3,155.7c-1.5-0.1-2.5-0.5-2.5-1.7c0-1.1,1-1.8,2.6-1.8c1.8,0,2.7,0.6,2.8,2c0,0,0,0.1,0,0.1
			c0,0-0.1,0-0.1,0h-0.7c-0.1,0-0.1,0-0.2-0.1c-0.2-0.8-0.6-1-1.7-1c-1.3,0-1.4,0.5-1.4,0.8c0,0.4,0.2,0.5,1.9,0.8
			c1.7,0.2,2.5,0.5,2.5,1.7c0,1.2-1,1.9-2.8,1.9c-2.4,0-3-1.1-3-2.1c0-0.1,0.1-0.2,0.2-0.2h0.7c0.1,0,0.1,0,0.2,0.1
			c0.1,0.7,0.4,1.1,1.9,1.1c1.2,0,1.7-0.3,1.7-0.9C1038.3,156.1,1038.2,155.8,1036.3,155.7z"/>
	</g>
	<g class="st1">
		<g id="bulb_1_">
			<path d="M222.2,2.7c-5.1,0-9.2,4.1-9.2,9.2c0,3.4,3.1,6.9,4.2,10.1c1.7,4.7,1.5,7.5,5,7.5c3.6,0,3.3-2.8,5-7.5
				c1.1-3.1,4.2-6.8,4.2-10.1C231.4,6.8,227.3,2.7,222.2,2.7z M224.4,25.4l-4.1,0.5c-0.1-0.4-0.3-0.9-0.5-1.6c0,0,0,0,0,0l5.2-0.6
				c-0.1,0.2-0.2,0.5-0.2,0.7C224.6,24.8,224.5,25.1,224.4,25.4z M219.5,23.5c-0.2-0.5-0.3-1-0.5-1.6h6.5c-0.1,0.3-0.2,0.6-0.3,0.9
				L219.5,23.5z M222.2,27.7c-0.8,0-1.2-0.1-1.7-1l3.5-0.4C223.6,27.6,223.2,27.7,222.2,27.7z M226.1,20.2h-7.8
				c-0.4-0.9-0.9-1.8-1.4-2.7c-1.1-2-2.2-4-2.2-5.7c0-4.1,3.4-7.5,7.5-7.5s7.5,3.4,7.5,7.5c0,1.7-1.1,3.7-2.2,5.7
				C227,18.4,226.5,19.3,226.1,20.2z"/>
		</g>
	</g>
	<g class="st2">
		<path d="M546.8,20.5h-7.1v-1h7.1V20.5z M561.5,20.5h-7.1v-1h7.1V20.5z M532,20.5h-7.7v-1h7.7V20.5z M516.5,20.5h-7.7v-1h7.7V20.5z
			 M501,20.5h-7.7v-1h7.7V20.5z"/>
	</g>
	<g class="st0">
		<path d="M749.6,20.5h-7.7v-1h7.7V20.5z M734.1,20.5h-7.7v-1h7.7V20.5z M718.6,20.5h-7.7v-1h7.7V20.5z M703.1,20.5H696v-1h7.1V20.5
			z"/>
	</g>
	<g class="st3">
		<polygon points="185.1,87.5 175.6,87.5 175.6,75.5 185.1,75.5 185.1,76.2 186.9,74.5 186.9,73.7 173.8,73.7 173.8,89.3 
			186.9,89.3 186.9,88.4 186.9,80.2 185.1,81.9 		"/>
		<path d="M181,81.5l-0.5,2c0,0,0,0,0,0c0,0,0,0,0,0c0,0,0,0,0,0c0,0,0,0,0,0c0,0,0,0,0,0c0,0,0,0,0,0c0,0,0,0,0,0c0,0,0,0,0,0
			c0,0,0,0,0,0c0,0,0,0,0,0c0,0,0,0,0,0c0,0,0,0,0,0c0,0,0,0,0,0c0,0,0,0,0,0c0,0,0,0,0,0c0,0,0,0,0,0c0,0,0,0,0,0c0,0,0,0,0,0
			c0,0,0,0,0,0c0,0,0,0,0,0c0,0,0,0,0,0c0,0,0,0,0,0c0,0,0,0,0,0c0,0,0,0,0,0l2-0.5c0,0,0.1,0,0.1-0.1l6.8-6.8l-1.8-1.8l-6.8,6.8
			C181,81.4,181,81.4,181,81.5z M181.4,81.7l1.1,1.1l-1.2,0.3c0-0.1,0-0.1-0.1-0.2c-0.1-0.1-0.1-0.1-0.2-0.1L181.4,81.7z"/>
		<path d="M190.6,75.4c-0.6-1.3-1.8-1.8-1.8-1.8l-0.7,0.7l1.8,1.8L190.6,75.4z"/>
		<path d="M275.6,95.6c-0.6,0-1,0.1-1.2,0.1v3.8c0.2,0.1,0.6,0.1,1,0.1c1.5,0,2.5-0.7,2.5-2.1C277.9,96.3,277,95.6,275.6,95.6z"/>
		<path d="M290.8,88.7h-23v22.2h23V88.7z M279,100c-0.8,0.8-2.1,1.2-3.5,1.2c-0.4,0-0.7,0-1-0.1v4.2h-2V94.3
			c0.7-0.1,1.7-0.2,3.1-0.2c1.5,0,2.6,0.3,3.3,0.9c0.7,0.5,1.1,1.4,1.1,2.5C279.9,98.5,279.6,99.4,279,100z M282.9,105.5
			c-1,0-1.9-0.2-2.5-0.6l0.4-1.5c0.5,0.3,1.3,0.6,2.1,0.6c0.9,0,1.3-0.4,1.3-0.9c0-0.5-0.3-0.8-1.3-1.2c-1.6-0.5-2.2-1.4-2.2-2.4
			c0-1.4,1.2-2.5,3.1-2.5c0.9,0,1.7,0.2,2.1,0.5l-0.4,1.4c-0.3-0.2-1-0.5-1.7-0.5c-0.7,0-1.1,0.4-1.1,0.8c0,0.5,0.4,0.8,1.4,1.1
			c1.5,0.5,2.1,1.3,2.2,2.5C286.2,104.5,285.1,105.5,282.9,105.5z"/>
		<rect x="278" y="112.6" width="1" height="7.7"/>
		<rect x="490.6" y="150.2" width="7.8" height="1"/>
		<rect x="444" y="150.2" width="7.8" height="1"/>
		<rect x="428.4" y="150.2" width="7.8" height="1"/>
		<rect x="475.1" y="150.2" width="7.8" height="1"/>
		<rect x="459.5" y="150.2" width="7.8" height="1"/>
		<path d="M400,145.1L400,145.1c-0.3,0.8-0.5,1.9-0.7,2.7l-1.1,3.6h3.7l-1.1-3.6C400.5,146.9,400.3,145.9,400,145.1z"/>
		<path d="M403.2,18.5h-2.9v2.9h1v114.4h-14.2v14.3h-80.6V135h1v-2.9h-2.9v1H279v-5h-1v5h-54.5v-1h-1V34.2h-1v47.6h-32.7v1h32.7
			v49.4h-1v2.9h2.9v-1h81v1h1v64.4h1v-48.2h80.6v13.6h29.9v-13.5h3.7v-1h-3.7v-14.4h-14.7V21.4h1v-1h84.9v-1h-84.9V18.5z
			 M410.3,157.5h-2.7V147h2.7V157.5z M408.9,142.6c0.9,0,1.5,0.6,1.5,1.4c0,0.8-0.6,1.4-1.5,1.4c-0.9,0-1.5-0.6-1.5-1.4
			C407.4,143.2,408.1,142.6,408.9,142.6z M406.5,157.5h-2.9l-1.3-4.1h-4.6l-1.3,4.1h-2.7l4.7-14.6h3.4L406.5,157.5z"/>
	</g>
	<g class="st0">
		<path d="M1019.1,156.9h-7.7v-1h7.7V156.9z M1003.6,156.9h-7.7v-1h7.7V156.9z M988.1,156.9h-7.7v-1h7.7V156.9z M972.6,156.9h-7.7
			v-1h7.7V156.9z M957.2,156.9h-7.7v-1h7.7V156.9z"/>
	</g>
	<g class="st3">
		<rect x="1048" y="70.3" width="1" height="7.7"/>
		<rect x="1048" y="54.9" width="1" height="7.7"/>
		<rect x="1048" y="85.8" width="1" height="7.7"/>
		<rect x="943.6" y="117" width="1" height="83"/>
		<path d="M1049,104.2v-2.9h-1v2.9h-93.9l1.1-12.2h-21.9l1.1,12.2h-81.1l1.6-17.7H842V21.4h1v-2.9H840v1h-85.3v1H840v1h1v65.1h-14.5
			l2.7,29.3l11.5,3.2l0.3-0.1v30.3h-1v1h-31.5v1H840v1h2.9v-2.9h-1v-30.6l10.2-2.8l1-10.7h81.3l0.9,9.4l8.9,2.4l8.9-2.4l0.9-9.4
			h122.5v-1H1049z M848.8,96.6h-12.2l0.3,3h11.6l-1,11.1l-6.8,2l-6.8-2l-0.5-5.1h3.9l0.2,2l3.2,1l3.2-1l0.4-4h-11l-0.6-7.1l-0.4-4.1
			h17L848.8,96.6z M950.5,99.8l-6.2,2.3h6l-0.8,8.6l-5.3,1.6l-5.3-1.6l-0.4-3.9h2.9l0.3,1.6l2.5,0.8l2.5-0.8l0.3-3.1h-8.5l-0.3-3.1
			l6.1-2.3H938l-0.3-3.1h13.1L950.5,99.8z"/>
	</g>
	<g class="st0">
		<path d="M801.6,151.1h-7.7v-1h7.7V151.1z M786.2,151.1h-7.7v-1h7.7V151.1z M770.7,151.1h-7.7v-1h7.7V151.1z M755.2,151.1h-7.7v-1
			h7.7V151.1z M739.7,151.1H732v-1h7.7V151.1z"/>
	</g>
</g>
<g>
</g>
<g>
</g>
<g>
</g>
<g>
</g>
<g>
</g>
<g>
</g>
<g>
</g>
<g>
</g>
<g>
</g>
<g>
</g>
<g>
</g>
<g>
</g>
<g>
</g>
<g>
</g>
<g>
</g>
</svg>
